<svg width="246" height="296" viewBox="0 0 246 296" fill="none" xmlns="http://www.w3.org/2000/svg">
<path fill-rule="evenodd" clip-rule="evenodd" d="M123.003 296C186.137 249.061 216.109 164.577 216.109 164.577C250.032 76.1658 245.835 6.09353 245.835 6.09353C173.433 16.5004 123.431 0.139802 123.003 1.10583e-05C122.56 0.144855 72.5558 16.5004 0.165664 6.09353C0.165664 6.09353 -4.03674 76.1658 29.8898 164.577C29.8898 164.577 59.8587 249.061 123.003 296" fill="#D1B48F"/>
<path fill-rule="evenodd" clip-rule="evenodd" d="M123.003 4.39746C131.383 6.92549 177.007 19.2086 241.626 10.8413C241.637 11.6312 241.648 12.4834 241.648 13.4704C241.648 33.3729 239.083 92.6543 212.043 163.118C211.715 164.036 182.541 244.647 123.003 290.63C63.4584 244.647 34.2817 164.036 33.9879 163.215C6.91906 92.6627 4.35376 33.3611 4.35376 13.4636C4.35376 12.4767 4.36285 11.6312 4.37143 10.8413C68.9191 19.1951 114.599 6.92212 123.003 4.39746" fill="#006086"/>
<path fill-rule="evenodd" clip-rule="evenodd" d="M96.4092 17.0628V18.4675H99.2572V30.7185C99.2572 30.7185 98.8607 36.7818 105.924 36.7565C105.924 36.7565 110.227 36.9923 112.469 34.5282C112.469 34.5282 112.289 36.8188 113.927 36.7565C113.927 36.7565 116.468 36.5207 120.287 34.9392L119.923 33.4756C119.923 33.4756 118.572 34.0836 117.618 33.9421C117.618 33.9421 116.824 33.9556 116.831 32.4769C116.831 32.4769 116.831 19.6414 117.194 15.6565L112.411 16.9449V31.2474C112.411 31.2474 112.546 34.4659 107.499 34.4727C107.499 34.4727 103.612 34.5215 103.619 30.1341V15.6565C103.619 15.6565 101.078 16.6535 96.4092 17.0628" fill="#D1B48F"/>
<path fill-rule="evenodd" clip-rule="evenodd" d="M127.015 34.5873C127.015 35.6904 126.091 36.5797 124.952 36.5797C123.817 36.5797 122.889 35.6904 122.889 34.5873C122.889 33.4892 123.817 32.5948 124.952 32.5948C126.091 32.5948 127.015 33.4892 127.015 34.5873" fill="#D1B48F"/>
<path fill-rule="evenodd" clip-rule="evenodd" d="M149.257 34.5873C149.257 35.6904 148.331 36.5797 147.191 36.5797C146.057 36.5797 145.135 35.6904 145.135 34.5873C145.135 33.4892 146.057 32.5948 147.191 32.5948C148.331 32.5948 149.257 33.4892 149.257 34.5873Z" fill="#D1B48F"/>
<path fill-rule="evenodd" clip-rule="evenodd" d="M131.823 31.9412L129.699 35.0722C129.699 35.0722 131.532 36.8979 135.889 36.839C135.889 36.839 143.724 37.2937 144.19 30.2873C144.19 30.2873 144.798 26.4338 139.187 24.3622C139.187 24.3622 135.361 23.0519 134.772 21.115C134.772 21.115 134.021 17.6809 137.754 17.6809C137.754 17.6809 140.321 17.7348 140.304 19.1596V20.9415L141.657 20.7563L142.423 16.3891C142.423 16.3891 132 13.056 130.724 20.9415C130.645 21.686 129.851 25.046 135.908 27.0974C135.908 27.0974 140.422 28.662 139.835 31.729C139.584 32.9652 139.584 34.8078 136.164 34.8836C136.164 34.8836 133.979 35.148 131.823 31.9412" fill="#D1B48F"/>
<path fill-rule="evenodd" clip-rule="evenodd" d="M53.4533 41.9776C53.4533 41.9776 47.4036 43.7292 41.9067 44.4097L42.2203 46.0804L45.9902 46.1562C45.9902 46.1562 46.6844 46.1966 46.6969 47.5979C46.6969 47.5979 47.2445 64.9252 46.6555 76.09H67.1505L67.6232 71.5325C67.6232 71.5325 63.1487 73.6984 53.6078 73.5838C53.6078 73.5838 53.0169 48.8611 53.4533 41.9776" fill="#D1B48F"/>
<path fill-rule="evenodd" clip-rule="evenodd" d="M83.5247 73.6394C83.5247 73.6394 83.3833 66.6095 83.344 59.2932C84.9035 59.3218 90.7073 59.4549 93.9499 59.7951C93.9499 59.7951 94.0103 57.5753 94.1878 56.4923C94.1878 56.4923 86.3327 57.2233 83.334 57.0633C83.3202 52.3744 83.3637 47.8607 83.5188 45.2804C85.065 45.3242 90.698 45.4943 92.4186 45.8396C92.4186 45.8396 93.4337 45.9962 93.362 46.9815L93.4798 50.3398H95.1904C95.1904 50.3398 96.0734 43.901 96.2482 42.7069L79.8141 42.8214C79.8141 42.8214 77.8155 43.2189 76.8721 43.3907L72.0393 44.3962C72.0071 44.3996 71.9782 44.3996 71.9492 44.4029V44.4147L71.9373 44.4181H71.9492L72.2575 46.0787L76.0299 46.1528C76.0299 46.1528 76.7262 46.1916 76.7366 47.5962C76.7366 47.5962 77.1673 63.3303 76.7563 76.09L97.8399 76.0866L98.3132 71.5257C98.3132 71.5257 93.0681 73.7506 83.5247 73.6394" fill="#D1B48F"/>
<path fill-rule="evenodd" clip-rule="evenodd" d="M189.015 73.6394C189.015 73.6394 188.874 66.6095 188.83 59.2932C190.39 59.3218 196.195 59.4549 199.441 59.7951C199.441 59.7951 199.497 57.5753 199.674 56.4923C199.674 56.4923 191.824 57.2233 188.823 57.0633C188.81 52.3744 188.853 47.8607 189.01 45.2804C190.553 45.3242 196.185 45.4943 197.908 45.8396C197.908 45.8396 198.925 45.9962 198.851 46.9815L198.97 50.3398H200.673C200.673 50.3398 201.56 43.901 201.737 42.7069L185.306 42.8214C185.306 42.8214 183.299 43.2189 182.357 43.3907L177.525 44.3962C177.495 44.3996 177.464 44.3996 177.436 44.4029L177.439 44.4147L177.424 44.4181H177.439L177.747 46.0787L181.515 46.1528C181.515 46.1528 182.214 46.1916 182.227 47.5962C182.227 47.5962 182.653 63.3303 182.244 76.09L203.328 76.0866L203.801 71.5257C203.801 71.5257 198.556 73.7506 189.015 73.6394" fill="#D1B48F"/>
<path fill-rule="evenodd" clip-rule="evenodd" d="M130.767 50.7608L132.855 50.4813L133.904 43.5439C133.904 43.5439 130.881 42.0231 123.902 42.0787C123.902 42.0787 106.379 41.7182 106.247 60.9673C106.247 60.9673 105.289 77.0601 122.338 76.9001C122.338 76.9001 129.7 76.8596 133.274 73.8533V70.4899C133.274 70.4899 129.802 74.2861 123.621 74.2861C123.621 74.2861 115.129 74.8453 113.072 61.7774C113.072 61.7774 111.12 44.8997 124.012 44.6606C124.012 44.6606 127.805 44.6168 129.991 46.2825C129.991 46.2825 130.657 46.6951 130.703 47.8353L130.767 50.7608" fill="#D1B48F"/>
<path fill-rule="evenodd" clip-rule="evenodd" d="M167.373 50.7608L169.458 50.4813L170.51 43.5439C170.51 43.5439 167.485 42.0231 160.502 42.0787C160.502 42.0787 142.987 41.7182 142.854 60.9673C142.854 60.9673 141.893 77.0601 158.942 76.9001C158.942 76.9001 166.305 76.8596 169.879 73.8533V70.4899C169.879 70.4899 166.408 74.2861 160.228 74.2861C160.228 74.2861 151.734 74.8453 149.675 61.7774C149.675 61.7774 147.728 44.8997 160.617 44.6606C160.617 44.6606 164.405 44.6168 166.597 46.2825C166.597 46.2825 167.265 46.6951 167.305 47.8353L167.373 50.7608" fill="#D1B48F"/>
<path fill-rule="evenodd" clip-rule="evenodd" d="M101.825 86.6838V87.9385C101.825 87.9385 103.473 87.5562 105.159 86.5355V98.0792C105.159 98.0792 105.201 99.334 104.301 99.3778H102.52V100.173H109.749L109.757 99.3727C109.757 99.3727 107.258 99.59 107.277 98.0792V84.6762H106.777C106.777 84.6762 104.337 86.0017 101.825 86.6838" fill="#D1B48F"/>
<path fill-rule="evenodd" clip-rule="evenodd" d="M116.863 84.6761C116.863 84.6761 111.994 84.5228 111.994 90.0656C111.994 90.0656 111.72 95.0408 116.863 94.4716C116.863 94.4716 118.433 94.2813 119.454 92.7991C119.454 92.7991 119.377 98.571 112.898 99.7887C112.898 99.7887 112.668 100.912 113.975 100.643C113.975 100.643 121.815 99.1419 121.815 91.3591C121.815 91.3591 122.495 84.6727 116.863 84.6761ZM116.863 92.9204C115.301 92.9204 114.038 91.3036 114.038 89.3044C114.038 87.3119 115.301 85.6984 116.863 85.6984C118.423 85.6984 119.69 87.3119 119.69 89.3044C119.69 91.3036 118.423 92.9204 116.863 92.9204Z" fill="#D1B48F"/>
<path fill-rule="evenodd" clip-rule="evenodd" d="M132.925 92.4673C132.925 92.4673 133.207 84.634 128.016 84.634C122.82 84.634 123.111 92.4673 123.111 92.4673C123.111 92.4673 122.674 100.624 128.016 100.624C133.356 100.624 132.925 92.4673 132.925 92.4673ZM130.09 98.2661C130.09 98.2661 129.595 99.4889 128.051 99.4855C126.504 99.4889 126.011 98.2661 126.011 98.2661C124.673 95.2311 125.296 89.3464 125.296 89.3464C125.672 85.6445 128.051 85.7573 128.051 85.7573C128.051 85.7573 130.426 85.6445 130.801 89.3464C130.801 89.3464 131.424 95.2311 130.09 98.2661Z" fill="#D1B48F"/>
<path fill-rule="evenodd" clip-rule="evenodd" d="M140.819 91.6708C140.819 91.6708 143.484 90.3318 143.484 87.9773C143.484 87.9773 143.795 84.7334 139.125 84.7486C139.125 84.7486 134.74 84.6492 134.688 88.9625C134.688 88.9625 134.373 91.3171 137.088 92.4219C137.088 92.4219 134.022 93.5622 134.18 96.6375C134.18 96.6375 134.255 100.659 138.657 100.624C138.657 100.624 144.148 100.782 143.997 95.5361C143.997 95.5361 144.135 92.5381 140.819 91.6708V91.6708ZM136.654 87.9385C136.799 85.6614 139.096 85.717 139.096 85.717C141.572 85.6918 141.658 88.053 141.658 88.053C141.922 89.904 139.801 91.1874 139.801 91.1874C139.318 90.9718 138.63 90.6737 138.63 90.6737C136.447 89.8333 136.654 87.9385 136.654 87.9385V87.9385ZM138.911 99.5226C135.908 99.494 135.945 96.3698 135.945 96.3698C135.89 94.2914 138.158 92.8952 138.158 92.8952C139.658 93.4645 140.794 94.2813 140.794 94.2813C142.13 95.0611 142.102 96.3428 142.102 96.3428C142.119 99.7012 138.911 99.5226 138.911 99.5226" fill="#D1B48F"/>
<path fill-rule="evenodd" clip-rule="evenodd" d="M181.894 140.599C181.189 140.481 181.482 140.086 181.482 140.086C183.34 139.988 183.31 139.058 183.31 139.058C183.576 137.551 182.133 136.951 182.133 136.951C179.804 136.252 177.772 138.607 177.772 138.607C177.478 138.945 176.917 138.747 176.917 138.747L176.591 139.771C175.886 139.712 175.238 140.658 175.238 140.658C174.169 140.897 173.651 140.427 173.651 140.427C172.885 139.745 171.644 139.686 171.644 139.686C170.884 139.344 171.469 139.228 171.469 139.228C173.593 139.119 173.531 137.805 173.531 137.805C173.531 135.211 171.293 135.412 171.293 135.412C172.239 134.903 172.282 134.159 172.282 134.159C172.09 133.376 172.957 133.032 173.299 133.362C173.738 133.79 174.403 133.977 174.403 133.977C175.696 134.43 175.83 133.65 175.83 133.65C175.83 133.192 176.007 132.85 176.007 132.85C176.241 132.793 177.535 132.793 177.535 132.793C179.009 132.737 178.777 131.368 178.777 131.198C178.777 128.929 177.242 129.318 177.242 129.318C176.949 129.204 177.123 128.978 177.123 128.978C178.303 128.751 177.656 128.18 177.656 128.18C177.242 127.607 177.656 127.38 177.656 127.38C179.893 126.469 179.834 125.786 179.834 125.786C180.056 124.816 178.102 123.747 177.889 123.621C177.109 123.164 175.707 123.792 175.707 123.792C176.007 123.334 175.83 122.767 175.83 122.767C175.653 120.845 173.356 120.715 173.356 120.715C169.6 120.715 167.051 125.5 167.051 125.5C166.58 126.241 166.58 126.455 166.227 126.583C165.39 126.89 165.873 127.836 165.873 127.836C166.244 128.533 165.289 128.923 165.289 128.923C164.7 129.204 164.635 129.716 164.635 129.716C164.581 129.376 164.345 129.148 164.345 129.148C163.815 128.805 164.051 128.293 164.051 128.293C164.7 127.552 164.465 127.038 164.465 127.038C164.465 124.816 161.28 123.223 161.28 123.223C161.28 123.735 160.631 124.535 160.631 124.535C159.851 125.273 159.516 128.18 159.516 128.18C159.16 128.463 159.16 128.121 159.16 128.121C159.015 126.698 158.747 126.526 158.747 126.526C156.894 124.331 154.57 125.16 154.57 125.16C153.712 126.871 155.273 129.605 155.273 129.605C155.45 129.945 155.686 130.344 155.686 130.344C155.686 131.712 156.743 131.712 156.743 131.712C157.436 131.811 157.219 132.166 157.219 132.166C157.041 132.565 157.394 132.906 157.394 132.906C157.923 133.362 157.923 133.933 157.923 133.933C158.187 134.728 158.747 134.103 158.747 134.103C159.104 133.65 159.633 134.219 159.633 134.219C160.397 135.07 161.162 134.103 161.162 134.103C161.045 134.331 161.454 134.787 161.454 134.787C160.294 134.858 159.218 136.097 159.218 136.097C158.806 136.838 157.394 137.805 157.394 137.805V139.287L157.158 139.344V138.546L156.452 137.694V135.926C155.317 135.981 154.979 135.582 154.979 135.582C154.393 134.957 153.977 134.957 153.977 134.957C152.683 134.957 152.974 135.926 152.974 135.926C153.151 136.379 153.151 136.665 153.151 136.665C152.326 136.894 152.739 137.462 152.739 137.462C153.329 138.063 152.739 137.98 152.739 137.98C151.811 138.078 151.561 138.546 151.561 138.546C151.31 138.959 152.621 139.572 152.621 139.572C153.151 139.969 152.803 140.369 152.803 140.369C152.269 141.337 153.622 142.359 153.622 142.359C152.444 142.251 151.916 142.705 151.916 142.705C151.505 138.661 149.208 138.435 149.208 138.435C149.088 139.176 148.676 139.459 148.676 139.459C147.794 140.198 147.441 142.933 147.441 142.933C145.54 140.468 143.849 140.939 143.849 140.939C142.565 141.297 143.256 144.243 143.256 144.243L143.49 144.303L143.437 144.928L143.613 145.097L143.731 146.068C144.379 146.354 144.786 146.921 144.786 146.921C144.85 147.891 145.084 147.831 145.084 147.831L145.2 148.629C145.497 148.86 146.316 148.684 146.316 148.684C148.267 149.941 148.025 151.366 148.025 151.366C147.441 152.104 146.617 154.84 146.617 154.84C146.143 154.669 145.554 155.126 145.554 155.126C145.379 154.501 145.791 154.158 145.791 154.158C146.143 153.187 145.2 152.789 145.2 152.789C144.672 152.505 145.084 152.218 145.084 152.218C145.438 151.878 145.2 150.393 145.2 150.393C143.664 150.451 143.437 149.599 143.437 149.599C142.962 149.029 142.078 149.313 142.078 149.313C141.299 149.699 141.668 150.337 141.668 150.337C142.258 151.052 141.432 151.304 141.432 151.304C140.665 151.478 141.141 152.047 141.141 152.047C141.562 152.287 141.191 152.675 141.191 152.675C140.37 152.846 139.958 153.589 139.958 153.589C140.074 154.727 141.077 154.898 141.077 154.898C141.191 155.126 141.018 155.466 141.018 155.466C139.845 157.63 142.078 158.255 142.078 158.255L142.019 158.655C139.311 158.195 139.665 160.252 139.665 160.252C138.783 160.08 137.31 161.619 137.31 161.619C137.664 159.565 137.724 159.281 137.724 159.281C138 159.297 137.957 158.827 137.957 158.827C138.076 158.03 137.075 157.63 137.075 157.63L136.958 155.522L135.562 155.408C134.856 154.348 133.756 154.574 133.756 154.574C132.657 154.649 133.202 155.56 133.202 155.56C133.953 156.132 133.202 156.322 133.202 156.322C132.419 156.395 132.653 157.157 132.653 157.157C132.732 157.533 132.732 157.838 132.732 157.838C132.105 157.838 131.712 158.448 131.712 158.448C131.478 158.827 132.027 159.055 132.027 159.055C131.946 159.281 132.653 159.584 132.653 159.584C133.507 159.907 132.815 160.42 132.815 160.42C132.342 160.574 131.946 160.194 131.946 160.194L130.77 159.207L130.536 158.672L130.201 158.969L129.888 159.276C128.868 159.502 128.497 159.13 128.497 159.13C128.208 157.2 129.203 155.791 129.203 155.791C129.476 155.282 129.277 155.178 129.277 155.178C128.732 154.955 129.651 152.616 129.651 152.616C130.364 151.478 130.831 152.561 130.831 152.561C131.478 153.589 132.244 153.133 132.244 153.133C133.008 152.675 132.477 152.16 132.477 152.16C131.83 151.42 132.477 151.193 132.477 151.193C133.246 150.852 132.949 150.451 132.949 150.451C132.433 149.923 133.008 149.825 133.008 149.825C133.643 149.739 133.481 150.279 133.481 150.279C133.111 150.753 133.539 151.135 133.539 151.135C133.362 151.478 133.52 151.839 133.52 151.839C134.54 151.685 135.011 152.218 135.011 152.218C135.799 153.513 137.13 152.751 137.13 152.751C137.899 152.247 137.13 151.839 137.13 151.839C136.819 151.46 137.25 151.304 137.25 151.304C138.133 150.852 137.664 150.337 137.664 150.337C137.25 149.825 137.899 149.711 137.899 149.711C138.943 149.769 138.84 149.087 138.84 149.087C138.84 148.285 138.196 148.285 138.196 148.285C137.278 148.073 137.549 147.487 137.549 147.487C137.839 146.921 137.78 146.639 137.78 146.639C137.78 145.496 136.368 145.044 136.368 145.044C135.954 144.814 136.134 144.585 136.134 144.585C137.017 144.189 136.307 143.787 136.307 143.787C135.838 143.273 136.543 143.102 136.543 143.102C137.327 142.891 137.194 142.418 137.194 142.418C137.194 141.851 135.543 141.45 135.543 141.45C135.954 140.086 134.599 139.459 134.599 139.459C134.893 139.572 135.361 139.058 135.361 139.058C135.599 139.969 136.486 139.058 136.486 139.058C137.017 138.435 137.485 138.204 137.485 138.204C138.665 137.805 138.133 138.492 138.133 138.492C137.559 138.932 137.549 140.259 137.549 140.259C137.017 141.793 138.076 141.736 138.076 141.736V143.333C138.133 143.504 139.136 143.389 139.136 143.389C139.431 144.356 140.722 144.018 140.722 144.018C141.548 143.845 140.902 143.273 140.902 143.273C140.491 142.933 140.902 142.705 140.902 142.705C141.846 142.987 141.191 141.679 141.191 141.679C141.934 141.692 141.961 141.224 141.961 141.224C142.198 140.599 141.191 140.086 141.191 140.086C141.252 139.572 142.258 139.915 142.258 139.915C142.464 140.512 143.317 140.71 143.317 140.71C143.788 140.658 144.14 139.915 144.14 139.915C145.246 140.114 145.497 139.344 145.497 139.344C145.736 138.546 144.672 138.607 144.672 138.607C144.786 138.263 144.433 137.748 144.433 137.748C144.495 137.408 145.259 137.805 145.259 137.805C145.673 138.607 146.735 138.036 146.735 138.036C146.91 138.661 147.974 139.004 147.974 139.004C148.617 139.176 148.736 138.492 148.736 138.492C148.794 137.805 149.383 138.149 149.383 138.149C151.859 138.917 151.62 136.097 151.62 136.097C151.62 133.477 146.086 134.159 146.086 134.159C147.496 132.277 149.679 131.995 149.679 131.995C150.101 132.764 150.384 132.395 150.384 132.395C150.623 131.823 150.855 132.277 150.855 132.277C151.091 133.192 152.032 133.077 152.032 133.077C152.683 133.007 152.564 132.225 152.564 132.225C152.887 132.661 153.568 132.507 153.568 132.507C154.859 132.338 154.506 130.287 154.506 130.287C154.859 129.542 154.329 129.433 154.329 129.433C153.744 129.492 153.447 129.318 153.447 129.318C152.695 128.665 150.623 128.923 150.623 128.923C149.618 128.86 149.679 129.542 149.679 129.542C149.265 129.542 148.324 129.492 148.324 129.492C147.912 129.492 147.794 129.716 147.794 129.716C148.38 130.004 148.205 130.571 148.205 130.571C147.853 130.63 147.59 131.243 147.414 131.225C146.819 131.169 145.673 132.507 145.673 132.507C145.497 132.623 145.379 132.225 145.379 132.225C146.086 131.712 146.735 130.797 146.735 130.797C147.425 129.588 145.32 128.923 145.32 128.923C143.554 128.635 141.24 131.939 141.24 131.939C140.473 132.921 140.607 133.874 140.607 133.874C139.958 134.103 139.491 135.07 139.491 135.07L139.603 135.412C138.96 135.412 138.31 135.639 138.31 135.639C139.9 134.391 138.901 134.445 138.901 134.445C138.487 134.219 138.901 133.989 138.901 133.989C140.311 133.406 140.446 132.694 140.446 132.694C140.798 130.13 138.133 127.893 138.133 127.893C138.487 127.323 139.254 127.836 139.254 127.836C139.845 128.52 140.254 128.008 140.254 128.008C140.434 127.666 141.191 127.949 141.191 127.949C142.829 129.463 143.199 128.634 143.199 128.634L143.49 127.666C145.818 128.276 145.966 127.154 145.966 127.154C146.439 125.5 144.672 124.705 144.672 124.705C145.084 124.816 145.736 124.705 145.736 124.705C146.671 124.535 146.91 124.874 146.91 124.874C147.794 125.615 149.031 125.615 149.031 125.615C149.559 125.615 149.502 124.535 149.502 124.535C152.387 124.931 152.444 123.681 152.444 123.681C152.959 121.357 149.088 120.774 149.088 120.774C146.939 120.405 145.141 120.774 145.141 120.774C144.068 121 143.023 120.715 143.023 120.715C142.962 120.037 142.375 119.405 142.375 119.405C141.991 118.893 140.841 119.237 140.841 119.237C142.258 117.527 143.142 117.866 143.142 117.866C143.583 118.282 142.962 118.666 142.962 118.666C142.962 119.747 144.14 119.976 144.14 119.976C145.141 120.089 145.497 119.69 145.497 119.69C146.028 119.292 146.38 119.575 146.38 119.575C146.966 120.089 147.558 119.69 147.558 119.69C148.38 119.348 148.676 119.631 148.676 119.631C149.735 120.543 150.507 120.148 150.507 120.148C151.281 119.861 151.032 118.893 151.032 118.893C153.622 118.893 153.151 118.725 153.151 118.725C153.267 118.435 153.568 118.435 153.568 118.435C153.86 119.065 154.804 118.778 154.804 118.778C155.097 119.575 156.038 119.69 156.038 119.69C156.717 119.905 156.571 119.176 156.571 119.176C156.571 118.778 156.864 118.893 156.864 118.893C157.29 119.164 157.98 119.176 157.98 119.176C158.971 119.306 158.806 117.753 158.806 117.753C158.863 115.476 155.273 115.42 155.273 115.42C156.038 115.191 156.391 114.905 156.391 114.905C157.175 115.09 157.158 114.564 157.158 114.564C157.232 113.98 156.805 113.709 156.805 113.709C157.993 112.968 157.803 112.629 157.803 112.629C157.571 111.087 156.335 111.145 156.335 111.145C155.215 111.061 154.154 111.772 154.154 111.772C154.27 111.203 153.212 111.26 153.212 111.26C153.508 111.146 153.508 110.519 153.508 110.519C153.58 109.537 152.506 109.434 152.506 109.434C149.502 109.092 150.088 112.798 150.088 112.798C150.384 114.219 150.206 114.964 150.206 114.964C149.911 114.905 148.851 115.076 148.851 115.076C148.496 114.964 148.736 114.677 148.736 114.677C149.031 114.393 149.44 114.108 149.44 114.108C150.206 113.652 149.854 113.138 149.854 113.138C149.324 111.656 148.149 111.543 148.149 111.543C145.614 111.361 143.967 114.847 143.967 114.847C143.554 114.792 143.437 115.191 143.437 115.191C143.374 115.759 143.664 115.986 143.664 115.986C143.142 116.158 143.023 116.842 143.023 116.842C140.784 116.498 139.136 118.666 139.136 118.666C139.015 117.695 140.357 116.587 140.357 116.587C140.828 115.786 140.074 115.533 140.074 115.533C139.279 115.361 139.603 114.792 139.603 114.792C140.017 114.278 140.017 113.768 140.017 113.768C140.193 112.057 137.31 112.567 137.31 112.567C134.336 113.268 134.424 118.608 134.424 118.608C133.599 118.666 133.481 118.041 133.481 118.041C133.421 116.498 132.182 116.217 132.182 116.217C131.596 116.217 131.596 115.703 131.596 115.703C132.653 115.759 132.774 115.076 132.774 115.076C132.889 113.936 134.01 113.879 134.01 113.879C134.661 114.108 135.011 113.426 135.011 113.426C135.381 112.784 135.07 112.567 135.07 112.567C134.365 111.772 134.776 111.602 135.07 111.487C136.235 111.031 136.159 110.463 136.159 110.463C136.07 108.297 133.715 107.787 133.715 107.787C131.034 107.3 129.183 111.602 129.183 111.602C128.875 112.668 128.651 112.629 128.651 112.629C128.182 112.842 128.003 113.308 128.003 113.308C127.238 112.114 123.938 114.393 123.938 114.393C123.819 113.768 124.643 112.798 124.643 112.798C125.291 111.487 124.29 111.602 124.29 111.602C123.708 111.543 123.41 111.203 123.41 111.203C123.41 110.403 123.29 109.266 123.29 109.266C123.112 108.527 121.351 108.527 121.351 108.527C117.694 108.867 119.167 113.995 119.167 113.995C118.873 113.879 118.697 113.709 118.697 113.709C118.284 111.829 116.693 111.428 116.693 111.428C115.132 110.989 114.572 112.567 114.572 112.567C113.865 115.476 117.458 118.778 117.458 118.778C117.521 119.575 118.284 119.69 118.284 119.69C119.111 119.69 118.873 120.316 118.873 120.316C118.402 120.774 117.812 122.598 117.812 122.598C117.637 122.026 116.458 122.312 116.458 122.312C116.046 120.375 114.868 120.089 114.868 120.089C113.072 119.493 112.394 121.173 112.394 121.173C111.688 123.563 114.749 126.871 114.749 126.871C113.634 126.925 112.042 128.405 112.042 128.405C110.923 128.86 111.158 129.605 111.158 129.605C110.688 129.492 110.63 129.945 110.63 129.945C109.98 128.064 107.213 128.293 107.213 128.293C106.094 128.405 105.974 128.064 105.974 128.064C105.092 127.38 103.207 127.322 103.207 127.322C103.502 126.925 104.151 126.298 104.151 126.298C105.502 126.415 105.618 126.127 105.618 126.127C106.799 126.356 106.561 125.615 106.561 125.615C106.269 124.133 106.622 124.306 106.622 124.306C106.857 124.591 107.446 124.535 107.446 124.535C108.21 124.591 108.095 123.907 108.095 123.907C108.049 123.351 108.683 123.452 108.683 123.452H110.334C112.455 123.407 112.042 120.148 112.042 120.148C112.058 119.194 109.038 118.725 109.038 118.725C110.996 117.855 110.964 117.138 111.04 116.786C111.51 114.564 109.684 114.165 109.684 114.165C108.126 113.795 105.562 114.847 105.562 114.847C105.092 113.254 103.855 113.028 103.855 113.028C103.013 113.039 102.322 113.936 102.322 113.936C101.796 113.028 100.91 113.028 100.91 113.028C99.9068 113.028 99.8489 114.393 99.8489 114.393C98.1995 114.337 98.3769 115.361 98.3769 115.361C98.1251 115.831 97.5512 115.533 97.5512 115.533C96.7708 115.149 96.4335 115.361 96.4335 115.361C95.6347 115.858 96.1982 116.786 96.1982 116.786C96.3724 117.071 96.2555 117.81 96.2555 117.81C95.5474 117.753 94.7256 118.95 94.7256 118.95L94.6086 117.982C92.8991 117.583 92.8991 115.873 92.8387 115.703C92.6421 115.127 92.1306 115.647 92.1306 115.647C91.5448 116.217 90.9545 115.759 90.9545 115.759C90.2189 115.405 89.6022 115.986 89.6022 115.986C88.8204 116.927 89.6022 117.3 89.6022 117.3C90.1913 117.583 89.8961 117.982 89.8961 117.982C89.2451 118.435 89.8355 118.834 89.8355 118.834C91.0452 119.663 90.1913 119.631 90.1913 119.631C90.011 119.575 89.6022 119.762 89.6022 120.316C89.0683 121.514 88.0716 120.887 88.0716 120.887C87.2459 120.429 86.4194 120.203 86.4194 120.203C84.5359 120.037 84.4182 122.312 84.4182 122.312C84.4182 124.631 91.1898 126.186 91.1898 126.186C89.6022 126.981 90.9545 127.607 90.9545 127.607C91.5119 127.968 91.2464 128.579 91.2464 128.579C90.8362 128.579 90.3673 129.148 90.3673 129.148C90.1913 129.318 89.9538 129.318 89.7205 129.261C88.5666 128.983 88.3655 129.261 88.3655 129.261C88.0124 129.473 87.8336 129.261 87.8336 129.261C87.3043 128.52 86.5384 128.405 86.5384 128.405C85.5957 128.463 85.1828 130.231 85.1828 130.231L84.121 130.172C84.5069 129.12 82.4425 128.18 82.4425 128.18C82.6818 126.871 82.1217 126.812 82.1217 126.812C82.2249 126.384 81.943 126.016 81.943 126.016C81.4736 125.556 81.1205 125.842 81.1205 125.842C81.1205 125.842 81.2349 126.029 80.9422 126.071C80.5294 126.127 80.4131 125.899 80.4131 125.899C79.0008 124.675 78.233 125.16 78.233 125.16C76.9522 125.813 77.7616 126.356 77.7616 126.356C78.3507 126.925 77.9969 127.437 77.9969 127.437C77.3494 127.949 78.1166 128.579 78.1166 128.579C78.6307 129.061 78.1166 129.433 78.1166 129.433C77.189 129.76 77.2311 130.172 77.2311 130.172C77.1416 130.999 78.588 131.425 78.588 131.425C79.0574 131.654 79.1743 131.882 79.1743 131.882C78.7649 133.02 79.8286 134.046 79.8826 134.273C80.0586 135.013 78.6484 134.502 78.4111 134.674C77.9292 135.019 77.4381 134.787 76.9956 134.843C76.8807 135.754 75.7571 136.323 75.7571 136.323C74.8755 136.379 74.051 136.951 74.051 136.951C72.9301 137.066 73.4008 137.694 73.4008 137.694C74.051 138.204 73.5777 138.607 73.5777 138.607C72.4896 139.686 73.1095 140.658 73.1095 140.658C73.9057 141.522 74.7005 140.481 74.7005 140.481C75.0529 140.028 75.7012 140.198 75.7012 140.198C75.6854 140.481 76.2304 140.427 76.2304 140.427C76.7025 140.369 76.9377 139.915 76.9377 139.915C78.1166 139.686 77.9398 140.198 77.9398 140.198C76.4652 140.599 76.2889 141.281 76.2889 141.281C76.2889 142.59 74.7577 143.102 74.7577 143.102C73.8748 143.445 74.5211 144.243 74.5211 144.243C74.9938 144.644 74.64 145.211 74.64 145.211C73.9313 146.497 75.1115 147.091 75.1115 147.091C75.7012 147.264 75.9951 146.524 75.9951 146.524C76.172 146.125 76.5242 146.239 76.5242 146.239C77.2929 146.581 77.4078 146.125 77.4078 145.956C77.4078 145.138 78.1751 145.553 78.1751 145.553C78.1968 145.585 78.233 145.638 78.2889 145.726C78.5282 146.068 79.0008 146.068 79.0008 146.068C79.703 146.068 79.6491 144.871 79.6491 144.871C79.5295 143.902 80.1764 143.958 80.1764 143.958C81.2066 143.745 81.3539 143.043 81.3539 143.043C81.653 142.477 82.0606 143.216 82.0606 143.216C82.5334 144.356 83.6523 144.127 83.6523 144.127C84.5655 144.018 84.4773 143.445 84.4773 143.273C84.4773 142.609 84.4773 142.304 84.4773 142.304C85.6529 141.793 85.1828 141.281 85.1828 141.281C84.8318 140.658 85.6529 140.537 85.6529 140.537C86.3327 140.527 86.4786 140.086 86.4786 140.086C86.7153 139.119 85.8323 138.89 85.8323 138.89C85.3012 138.607 85.5957 138.32 85.5957 138.32C87.0663 138.435 89.6022 140.141 89.6022 140.141C88.8928 140.259 88.3655 140.882 88.3655 140.882C86.2432 140.768 86.0658 141.736 86.0658 141.736C86.0072 142.705 87.1853 142.647 87.1853 142.647C86.95 143.445 87.4805 143.56 87.4805 143.56C88.612 143.673 87.9506 144.303 87.9506 144.303C87.1853 144.871 87.8336 145.211 87.8336 145.211L88.7186 145.496L87.4805 145.328C87.4805 145.328 87.4805 145.328 87.4805 145.609C87.4805 145.895 87.0663 146.809 87.0663 146.809C86.1848 147.891 85.7133 148.684 85.7133 148.86C85.7133 150.124 86.6562 149.769 86.6562 149.769C86.8632 149.397 87.5416 149.599 87.5416 149.599C87.0078 149.711 86.8915 150.337 86.8915 150.337C84.2999 150.508 84.2999 152.047 84.242 152.218C83.551 154.214 82.0014 153.758 82.0014 153.758C81.8272 153.245 82.0606 152.278 82.0606 152.278C80.5893 151.65 80.4131 149.255 80.4131 149.255C79.1744 149.141 78.1751 148.004 78.1751 148.004C77.7189 147.503 77.0567 147.434 77.0567 147.434C76.172 147.319 76.4651 148.004 76.4651 148.004C76.8181 148.347 76.7617 148.799 76.7617 148.799C76.172 148.971 76.6459 149.599 76.6459 149.599C76.8181 149.711 76.7025 150.107 76.7025 150.107C76.2889 150.052 75.9365 150.107 75.9365 150.107C75.3804 150.422 76.0548 150.907 76.0548 150.907C76.7459 151.436 77.2311 152.104 77.2311 152.104C76.8181 153.641 78.5282 154.501 78.5282 154.501C77.9109 154.697 77.0567 154.386 77.0567 154.386C76.7025 154.273 76.7025 154.214 76.4079 154.158C75.7117 154.02 74.4632 155.068 74.4632 155.068C72.9918 154.898 72.2824 155.126 72.2824 155.126C72.2824 155.918 71.0478 156.549 71.0478 156.549C68.8704 157.232 69.2221 158.655 69.2221 158.655C69.7513 158.827 70.2266 158.539 70.2266 158.539C70.2838 158.368 70.871 158.539 70.871 158.539C70.988 159.456 71.7558 158.999 71.7558 158.999C71.8709 158.827 72.1069 158.999 72.1069 158.999C71.9295 159.798 72.4001 160.136 72.4001 160.136C72.9301 160.477 74.1686 159.109 74.1686 159.109C74.8163 158.655 75.1712 158.999 75.1712 158.999C75.4651 159.624 76.7617 158.939 76.7617 158.939C76.9378 159.682 76.6459 160.08 76.6459 160.08C76.0548 160.366 75.8182 161.164 75.8182 161.164C75.1712 161.676 75.7012 162.191 75.7012 162.191C76.2889 162.703 75.9951 163.495 75.9951 163.495C75.7012 166.004 76.9377 166.004 76.9377 166.004C77.6433 165.946 77.5881 164.814 77.5881 164.814C78.7649 165.206 78.588 164.239 78.588 164.239C78.5282 163.667 79.1173 164.014 79.1173 164.014C79.1021 164.581 79.7661 164.521 79.7661 164.521C80.471 164.466 80.1764 162.019 80.1764 162.019C81.931 161.351 81.3815 157.745 81.3815 157.745C81.3236 157.404 81.5781 157.559 81.5781 157.559C82.1638 159.609 84.3558 159.393 84.3558 159.393C84.6542 160.252 85.4195 160.59 85.4195 160.59C85.7738 161.218 86.361 160.71 86.361 160.71C87.0078 160.309 88.0124 160.59 88.0124 160.59C89.1287 161.332 89.6022 160.59 89.6022 160.59C90.4107 160.65 90.3673 160.194 90.3673 160.194C90.5435 159.393 89.4819 159.339 89.4819 159.339C89.1722 159.281 89.245 158.999 89.245 158.999C89.9999 158.126 89.0683 158.143 89.0683 158.143C88.2438 158.098 88.658 157.63 88.658 157.63C89.426 157.231 89.3056 156.774 89.3056 156.774C89.3056 156.09 87.5968 156.264 87.5968 156.264C86.8363 156.506 86.7745 155.978 86.7745 155.978C86.5384 154.158 83.0605 154.158 83.0605 154.158C84.887 153.758 85.3012 152.505 85.3012 152.505C86.2873 152.603 86.6562 151.878 86.6562 151.878C88.0716 149.711 89.3681 149.997 89.3681 149.997C89.3056 150.907 90.0728 150.963 90.0728 150.963C90.9545 151.076 91.7203 149.543 91.7203 149.543L91.6619 150.907C91.2464 150.963 90.777 151.989 90.777 151.989C90.011 152.39 90.6593 152.846 90.6593 152.846C90.8362 153.016 90.8973 153.589 90.8973 153.589C90.7342 156.288 91.7203 156.034 91.7203 156.034C92.3397 156.022 92.1931 155.64 92.1931 155.64C92.1931 155.068 92.4863 155.068 92.4863 155.068C93.663 155.408 93.314 154.669 93.314 154.669C93.314 154.386 93.663 154.327 93.663 154.327C93.6053 154.669 94.7256 154.727 94.7256 154.727C95.1384 154.612 95.0208 152.616 95.0208 152.616C96.9043 151.764 96.3159 150.393 96.3159 150.393C96.788 149.655 98.4362 149.543 98.4362 149.543C99.2718 149.47 99.2592 150.052 99.2592 150.052C99.5505 150.794 100.731 150.508 100.731 150.508C100.731 150.907 101.853 151.596 101.853 151.596C101.853 151.818 102.144 152.104 102.144 152.104C102.732 151.989 102.971 151.596 102.971 151.596C103.383 151.304 104.384 151.478 104.384 151.478C105.092 151.562 105.268 151.135 105.268 151.135C106.151 149.941 105.386 150.052 105.386 150.052C104.561 149.923 104.621 149.372 104.621 149.372C104.577 148.885 104.561 148.745 104.561 148.745C104.151 148.117 104.796 148.285 104.796 148.285C104.917 148.062 105.325 148.347 105.325 148.347C106.857 148.403 106.504 148.515 106.504 148.515C106.504 148.745 106.976 148.576 106.976 148.576C106.917 148.175 107.446 148.062 107.446 148.062C110.747 149.087 116.222 148.799 116.222 148.799C116.487 148.433 117.872 148.629 117.872 148.629L118.284 148.799C118.931 148.799 119.167 149.141 119.167 149.141C119.699 149.711 120.17 149.997 120.17 149.997C122.232 150.451 122.407 154.214 122.407 154.214C121.705 154.784 122.29 155.581 122.347 155.866C122.353 155.885 122.353 155.894 122.357 155.904C122.371 155.938 122.385 155.976 122.407 156.034C122.6 156.53 123.464 156.322 123.464 156.322C124.467 156.662 125.178 158.313 125.178 158.313C125.291 158.599 125.291 159.168 125.291 159.168C125.116 158.827 124.408 158.143 124.408 158.143C123.996 157.914 123.708 157.572 123.708 157.572C123.29 157.404 122.704 157.914 122.704 157.914H121.998C121.878 157.514 120.82 157.745 120.82 157.745L120.466 157.972C120.198 157.487 120.524 156.549 120.524 156.549C120.936 155.408 120.23 155.296 120.23 155.296C120.052 155.126 119.757 154.784 119.757 154.784V152.901L118.461 152.846C117.282 151.304 116.046 151.989 116.046 151.989C115.445 152.589 116.103 153.133 116.103 153.133C116.28 153.245 116.046 153.758 116.046 153.758C115.165 154.101 115.692 154.612 115.692 154.612C115.927 154.727 115.635 155.126 115.635 155.126C114.394 155.178 114.453 155.918 114.453 155.918C114.484 156.493 115.692 157.116 115.692 157.116V157.286H113.335C113.278 156.149 113.043 155.068 113.043 155.068C112.173 153.932 112.042 153.016 112.042 153.016C111.98 152.16 111.04 152.16 111.04 152.16C110.612 152.15 110.63 151.65 110.63 151.65C110.569 150.963 110.039 150.68 110.039 150.68C109.92 150.052 109.627 150.052 109.627 150.052C109.347 149.997 109.095 150.279 109.095 150.279L108.33 150.165C108.272 149.825 107.801 149.883 107.801 149.883C106.785 149.483 106.444 150.225 106.444 150.225C106.208 151.076 107.095 151.534 107.095 151.534C107.504 151.65 107.095 152.104 107.095 152.104C106.622 152.616 107.504 153.133 107.504 153.133C107.623 153.359 107.504 153.699 107.504 153.699L107.153 153.932C106.151 153.813 106.151 154.214 106.151 154.214C105.916 154.158 105.618 154.444 105.618 154.444C105.518 154.74 105.034 154.501 105.034 154.501C104.917 154.045 104.091 154.214 104.091 154.214C104.061 153.985 103.562 153.985 103.562 153.985C102.441 154.055 102.793 155.068 102.793 155.068C101.202 155.178 101.324 156.206 101.324 156.206C101.294 157.046 102.676 156.944 102.676 156.944C102.852 157.061 102.618 157.514 102.618 157.514C102.144 157.857 101.853 158.313 101.853 158.313C101.912 157.972 101.853 157.116 101.853 157.116C101.615 157.176 100.91 157.005 100.91 157.005C98.4362 156.605 97.3757 157.005 97.3757 157.005C95.8438 157.116 95.7255 157.286 95.7255 157.286H95.1384C94.0182 157.231 93.2515 158.483 93.2515 158.483C92.7815 158.368 92.0155 158.827 92.0155 158.827C91.8388 158.769 91.0143 158.939 91.0143 158.939C90.777 159.109 91.1898 159.682 91.1898 159.682C91.3674 159.849 91.2464 160.252 91.2464 160.252C90.7934 160.21 90.6021 161.049 90.6021 161.049C90.4239 162.203 91.3312 162.23 91.3312 162.23C92.5455 162.443 92.5455 162.13 92.5455 162.13C92.7815 161.619 93.6053 161.904 93.6053 161.904C93.9912 162.301 94.7256 161.847 94.7256 161.847C94.8117 161.491 95.5474 161.79 95.5474 161.79C95.3732 161.847 95.3153 162.13 95.3153 162.13C95.0208 162.13 94.5342 162.256 94.5342 162.256C94.4179 162.658 93.6053 162.643 93.6053 162.643C93.0156 163.041 93.0156 164.466 93.0156 164.466C91.8985 165.033 91.5448 167.201 91.5448 167.201C91.6619 167.655 92.3082 167.486 92.3082 167.486C92.4284 167.088 93.0156 167.141 93.0156 167.141C93.0735 167.596 93.663 167.596 93.663 167.596C93.7236 167.373 94.1937 167.141 94.1937 167.141V167.939C94.2535 168.425 94.6086 168.509 94.6086 168.509C95.1384 168.57 95.7458 167.254 95.7458 167.254C96.2172 166.495 96.6097 166.495 96.6097 166.495C97.5512 167.105 97.0036 168.244 97.0036 168.244C96.6097 169.892 98.2475 170.097 98.2475 170.097C98.8036 170.122 98.7984 169.64 98.7984 169.64C98.8766 168.866 99.5064 168.954 99.5064 168.954H100.134C100.54 168.953 100.537 168.244 100.537 168.244C100.528 167.899 101.086 168.244 101.086 168.244C101.086 168.476 101.821 168.674 101.821 168.674C102.484 168.953 102.421 168.169 102.421 168.169V167.026C102.421 166.725 102.846 166.684 102.846 166.684L103.003 168.204C104.323 168.532 104.778 169.159 104.778 169.159C105.832 170.882 107.085 170.204 107.085 170.204C107.374 169.764 106.896 168.624 106.896 168.624C107.417 168.996 107.603 168.399 107.603 168.399C107.446 167.939 107.285 167.59 107.285 167.59C107.206 167.134 107.521 167.361 107.521 167.361C107.753 167.518 108.621 167.361 108.621 167.361C108.463 167.134 108.704 166.725 108.704 166.725L109.018 166.875C109.252 167.559 111.059 168.476 111.059 168.476C112.026 168.881 112.239 169.308 112.239 169.308C112.788 170.204 113.675 170.457 113.675 170.457C114.301 170.682 114.595 171.434 114.595 171.434C114.781 172.585 116.15 172.866 116.15 172.866L116.162 173.258C115.771 173.18 115.457 173.709 115.457 173.709C114.868 173.951 114.749 174.246 114.749 174.246C114.342 174.522 114.647 175.061 114.647 175.061C115.589 175.874 114.986 176.37 114.986 176.37C114.359 176.601 115.144 177.513 115.144 177.513C115.781 178.453 116.398 177.967 116.398 177.967C116.479 177.359 117.027 176.906 117.027 176.906C117.106 177.133 117.97 177.057 117.97 177.057C118.047 176.219 118.752 176.219 118.752 176.219C118.752 176.524 119.541 176.677 119.541 176.677L119.934 176.449C119.934 176.906 121.034 177.513 121.034 177.513C121.82 178.498 121.189 179.792 121.189 179.792C120.405 181.233 120.484 182.075 120.484 182.075C120.565 184.269 120.17 184.269 120.17 184.269C119.963 185.046 120.798 186.93 120.798 186.93C120.98 188.634 120.405 188.983 120.405 188.983C119.699 189.588 120.33 190.655 120.33 190.655C120.33 191.642 120.249 192.248 120.249 192.248C120.17 192.679 120.33 193.161 120.33 193.161C119.619 194.452 120.015 195.892 120.015 195.892C120.138 196.893 120.17 197.794 120.17 197.794C119.776 198.25 120.015 199.087 120.015 199.087C120.214 199.418 120.33 199.993 120.33 199.993C120.015 200.831 120.249 202.277 120.249 202.277C118.364 201.97 115.771 201.516 115.377 201.439C114.669 201.304 113.886 200.908 113.886 200.908C110.966 200.427 108.874 198.86 108.547 198.627C107.066 197.584 105.092 196.273 105.092 196.273C103.733 195.306 101.177 195.34 101.177 195.34C101.723 193.096 100.875 191.716 100.875 191.716C100.706 191.443 100.402 191.484 100.402 191.484C99.6951 191.564 99.5182 192.626 99.5182 192.626C99.4677 193.224 99.1994 193.615 99.1994 193.615C98.8076 194.183 98.5459 195.021 98.5459 195.021C98.3093 194.944 96.5321 194.981 96.5321 194.981C96.3369 194.452 96.0188 194.09 96.0188 194.09C95.9628 193.273 95.6644 193.009 95.6644 193.009C95.3153 192.835 94.7256 192.211 94.7256 192.211C94.2535 191.867 93.9616 192.267 93.9616 192.267C93.214 193.745 94.2535 195.344 94.2535 195.344C93.193 195.402 92.6059 196.253 92.6059 196.253C92.3693 196.709 91.7782 197.223 91.7782 197.223L91.7203 197.794C91.485 198.075 90.4239 198.702 90.4239 198.702C89.7205 198.994 89.7771 199.898 89.7771 199.898C89.6199 200.831 88.4811 201.265 88.4811 201.265C86.0072 202.408 86.0072 203.202 86.0072 203.202C86.0072 204.347 86.4786 204.287 86.4786 204.287C86.5384 204.626 86.8363 204.799 86.8363 204.799V205.196L87.1853 205.313C87.3609 205.599 88.4193 205.469 88.4193 205.469L88.7186 205.313C88.7186 205.537 89.1287 205.537 89.1287 205.537C89.4036 205.537 89.533 205.541 89.804 205.45C89.9203 205.166 90.7204 205.313 90.7204 205.313C90.9203 205.829 91.9728 205.678 91.9728 205.678C92.1497 205.45 92.6059 205.479 92.6059 205.479L92.8991 205.656C93.193 205.656 93.7236 205.537 93.7236 205.537C94.1937 205.196 95.2567 204.687 95.2567 204.687C95.7255 204.745 96.2555 204.687 96.2555 204.687C96.3724 204.398 96.9622 204.347 96.9622 204.347C98.0851 204.324 98.4873 204.586 98.4873 204.586C99.4926 205.231 99.9896 206.235 99.9896 206.235C100.832 207.848 102.577 209.06 102.577 209.06C103.222 209.479 103.469 209.964 103.469 209.964C104.238 211.128 104.641 211.072 104.746 211.286C105.612 213.043 105.907 212.646 106.277 213.2C106.937 214.343 108.036 214.541 108.036 214.541V214.997L108.21 215.339C107.742 215.795 107.269 216.533 107.269 216.533C106.094 216.477 104.738 217.504 104.738 217.504C104.135 217.904 103.031 217.79 103.031 217.79C100.731 217.905 99.3777 220.121 99.3777 220.121C98.122 222.05 98.141 223.316 98.141 223.316C97.3302 223.866 97.3757 224.567 97.3757 224.567C96.1378 225.594 96.6097 226.791 96.6097 226.791C96.8398 227.144 96.8439 227.755 96.8439 227.755C96.7287 229.465 97.3757 229.638 97.3757 229.638L97.5512 230.495C97.6505 231.804 98.8142 231.288 98.8871 231.551C98.9549 231.79 99.3198 231.685 99.3198 231.685C99.9168 231.653 99.7912 231.233 99.7912 231.233C100.143 231.007 99.9654 230.664 99.9654 230.664C99.9068 230.374 100.027 230.093 100.027 230.093C100.383 229.714 100.084 229.185 100.084 229.185C100.378 228.939 100.378 228.498 100.378 228.498C100.497 227.586 100.084 227.299 100.084 227.299C100.262 227.189 100.201 226.673 100.201 226.673C100.616 226.448 100.378 225.594 100.378 225.594C100.201 225.135 100.435 224.68 100.435 224.68C100.79 224.395 100.673 223.829 100.673 223.829C101.512 222.444 102.673 222.141 102.673 222.141C103.331 221.922 103.633 221.373 103.633 221.373C105.46 221.432 106.386 220.976 106.386 220.976C107.241 220.676 107.858 220.579 107.858 220.579C108.978 220.467 110.039 219.495 110.039 219.495C110.805 218.868 110.982 219.268 110.982 219.268C111.687 222.346 112.511 223.143 112.511 223.143C112.631 223.655 112.447 224.043 112.447 224.043C112.152 224.787 112.442 225.935 112.442 225.935C113.031 226.168 113.634 227.018 113.634 227.018C113.733 227.721 113.706 230.058 113.706 230.058L114.035 230.251C113.816 230.526 113.865 231.461 113.865 231.461C113.871 232.505 112.085 232.202 112.085 232.202C109.964 232.086 110.334 233.57 110.334 233.57C109.152 233.793 109.389 235.611 109.389 235.611L112.887 235.587C114.232 235.754 114.22 235.443 114.22 235.443C115.052 235.597 115.189 235.061 115.189 235.061C115.409 234.442 115.517 234.137 115.517 234.137C115.927 233.855 116.288 233.522 116.288 233.522C116.169 232.955 116.194 231.969 116.194 231.969C116.666 231.911 117.078 231.285 117.078 231.285C117.018 230.827 117.282 230.777 117.282 230.777C117.419 230.576 117.34 229.977 117.34 229.977C117.34 228.667 116.892 228.245 116.892 228.245C115.766 227.255 116.458 225.935 116.458 225.935C116.677 225.554 116.65 225.151 116.65 225.151C116.617 224.507 116.398 224.337 116.398 224.337C116.512 222.806 116.222 222.457 116.222 222.457C115.987 222.288 115.927 221.664 115.927 221.664V220.065C114.802 218.751 116.389 217.79 116.389 217.79C116.782 217.524 117.282 217.278 117.282 217.278C118.107 217.278 119.52 217.278 119.52 217.278V218.528V218.779L119.492 219.068C119.3 219.136 119.284 219.61 119.284 219.61C119.273 220.442 119.512 220.391 119.512 220.391V221.363C118.982 221.589 119.345 223.655 119.345 223.655C119.345 224.054 119.356 224.359 119.356 224.359C119.026 225.816 119.492 225.872 119.492 225.872L119.52 227.136L119.62 227.127V227.642L119.466 227.933C119.603 228.949 119.217 229.251 119.217 229.251C118.604 229.847 118.873 231.213 118.873 231.213L119.084 231.343V232.028L118.894 232.065C118.894 233.603 117.989 234.933 117.989 234.933C117.399 235.387 117.046 236.534 117.046 236.534C116.339 236.645 115.927 237.328 115.927 237.328C115.457 237.785 114.986 237.841 114.986 237.841C114.342 239.205 112.337 239.435 112.337 239.435C109.684 239.891 108.152 240.063 108.152 240.063C107.446 240.916 105.325 240.746 105.325 240.746C105.268 240.916 104.68 241.374 104.68 241.374C102.911 241.374 101.796 242.398 101.796 242.398C101.026 242.513 98.4362 242.568 98.4362 242.568C96.9043 242.682 96.0772 243.651 96.0772 243.651L95.9037 243.711C94.429 242.055 93.314 242.34 93.314 242.34L93.2515 241.544C92.7229 241.43 92.6059 240.518 92.6059 240.518H92.251C92.0544 241.392 92.8387 242.971 92.8387 242.971C92.8387 243.539 93.9616 243.367 93.9616 243.367C94.429 243.539 94.4921 244.163 94.4921 244.163C93.193 244.222 93.0156 244.789 93.0156 244.789C89.228 245.511 88.7724 246.954 88.7724 246.954C88.7724 247.696 89.3681 247.469 89.3681 247.469C89.5817 246.407 92.6625 245.53 92.6625 245.53C93.314 245.588 93.5481 245.301 93.5481 245.301C95.7071 245.268 96.2555 244.335 96.2555 244.335L97.492 244.393C97.6091 244.107 98.2593 243.651 98.2593 243.651C99.0067 243.84 100.262 243.763 100.262 243.763C97.5689 245.094 97.6091 246.214 97.6091 246.214C96.118 246.973 96.6097 248.155 96.6097 248.155C96.5513 248.665 96.4335 248.837 96.4335 248.837C96.1179 249.519 94.8228 250.184 94.8228 250.184C94.5869 250.124 94.2318 250.411 94.2318 250.411C93.0556 250.357 92.8387 251.286 92.8387 251.286C92.251 251.398 92.4284 252.236 92.4284 252.236C92.8991 252.236 93.1529 252.236 93.1529 252.236C93.214 251.496 94.7256 250.829 94.7256 250.829C95.7664 250.698 96.5513 250.202 96.5513 250.202C96.7287 249.688 97.0805 249.177 97.0805 249.177C97.492 248.777 97.492 248.095 97.492 248.095C97.6091 247.126 98.2593 246.67 98.2593 246.67C99.2592 245.986 101.796 243.823 101.796 243.823C102.5 243.651 102.971 243.309 102.971 243.309C103.324 243.367 104.917 243.252 104.917 243.252C105.034 243.024 105.857 242.568 105.857 242.568C108.389 242.568 108.622 242.112 108.622 242.112C109.389 241.884 110.569 242.055 110.569 242.055C110.217 242.34 107.917 243.138 107.917 243.138C106.561 243.595 105.386 244.107 105.386 244.107C102.949 244.409 103.089 245.643 103.089 245.643C102.028 246.101 102.322 247.64 102.322 247.64C101.615 247.923 101.615 248.892 101.615 248.892C101.086 249.009 100.262 249.463 100.262 249.463C97.7295 249.65 97.9634 251.852 97.9634 251.852C97.4329 252.14 96.9622 252.939 96.9622 252.939C96.3724 253.164 96.5513 254.19 96.5513 254.19C96.3159 254.246 96.2358 254.875 96.2358 254.875H96.788L96.9622 254.42C97.1601 252.897 98.3769 252.483 98.3769 252.483C98.6104 252.194 98.866 251.952 98.866 251.952C99.1601 250.278 100.435 250.26 100.435 250.26C100.715 250.45 100.516 250.882 100.673 251C101.109 251.312 100.673 252.483 100.673 252.483C100.143 252.538 100.321 253.619 100.321 253.619C100.027 253.619 100.201 254.303 100.201 254.303C100.616 254.359 100.731 253.789 100.731 253.789C101.202 253.679 101.026 252.769 101.026 252.769C101.324 252.652 101.377 252.194 101.377 252.194C101.796 251.966 101.615 249.859 101.615 249.859C103.618 249.177 103.324 247.923 103.324 247.923C104.738 245.416 105.618 245.53 105.618 245.53C106.386 245.474 106.504 245.359 106.504 245.359C106.504 244.903 106.917 244.903 106.917 244.903H107.153C106.917 245.702 107.623 245.588 107.623 245.588L107.504 245.869C106.857 246.328 107.269 246.782 107.269 246.782V247.012C106.034 247.811 106.386 248.549 106.386 248.549C105.974 248.665 105.618 249.401 105.618 249.401C105.149 249.519 105.325 250.029 105.325 250.029L105.562 250.148L105.857 249.92C106.034 249.976 106.386 249.746 106.386 249.746C106.561 249.009 107.388 248.493 107.388 248.493L107.504 247.811C107.917 247.753 108.272 247.126 108.272 247.126L108.389 244.789H109.92C110.099 244.335 112.455 243.711 112.455 243.711C113.515 243.595 113.693 243.08 113.693 243.08C113.749 242.284 114.163 242.456 114.163 242.456C115.457 242.228 115.339 241.544 115.339 241.544L115.571 241.603C115.571 242.796 115.222 243.252 115.222 243.252C114.518 243.478 114.163 244.393 114.163 244.393C113.335 244.734 113.693 246.101 113.693 246.101C111.51 245.986 111.099 247.582 111.099 247.582C110.688 247.696 111.158 248.439 111.158 248.439V249.746C110.863 249.859 110.334 250.427 110.334 250.427C108.389 250.427 108.622 251.682 108.622 251.682L106.741 253.28C106.208 253.561 106.329 254.246 106.329 254.246H106.682C106.504 253.789 107.504 253.507 107.504 253.507C108.152 253.561 108.622 252.538 108.622 252.538C109.095 252.313 109.566 251.738 109.566 251.738C109.566 251.512 109.862 251.286 109.862 251.286C110.569 251.34 111.04 251 111.04 251C111.216 249.976 111.749 249.976 111.749 249.976C112.081 249.992 112.099 249.575 112.099 249.575L112.22 247.983C112.631 246.498 113.987 247.182 113.987 247.182C113.987 247.409 114.102 247.524 114.102 247.524V247.983C113.808 247.983 113.749 248.549 113.749 248.549C113.711 249.194 113.987 249.177 113.987 249.177L113.865 251.171C113.278 251.912 114.28 252.818 114.28 252.818C114.394 253.049 114.342 254.077 114.342 254.077C113.927 254.133 113.927 255.273 113.927 255.273C113.693 255.273 113.457 255.502 113.457 255.502C112.22 255.44 112.277 256.354 112.277 256.354C111.569 256.543 111.335 257.55 111.335 257.55C111.137 257.669 111.236 258.502 111.236 258.502L111.021 258.654L110.982 259.452C111.433 259.39 111.591 259.465 111.591 259.465C111.749 259.434 111.687 258.411 111.687 258.411C112.081 258.557 112.277 257.323 112.277 257.323C112.829 257.232 112.985 256.813 112.985 256.813C113.457 256.865 113.634 256.641 113.634 256.641C113.749 256.298 114.102 256.582 114.102 256.582C114.044 257.381 114.518 257.718 114.518 257.718L114.572 259.375L114.808 259.541L114.93 260.231H115.222C115.571 259.262 115.104 258.973 115.104 258.973L115.165 258.631C115.517 258.011 115.104 257.669 115.104 257.669C115.104 256.354 114.986 256.068 114.986 256.068C114.691 255.103 115.339 254.246 115.339 254.246C115.751 253.561 115.517 252.993 115.517 252.993L115.278 252.818C115.339 252.592 115.339 252.255 115.339 252.255C114.631 251.512 114.808 250.773 114.808 250.773C115.165 250.599 115.104 248.439 115.104 248.439C115.399 248.211 115.399 245.188 115.399 245.188C115.537 245.643 116.103 245.702 116.103 245.702C116.398 245.702 116.458 246.156 116.458 246.156C116.339 247.106 116.869 247.073 116.869 247.073C117.521 247.147 117.399 246.782 117.399 246.782L117.164 246.615C117.106 246.328 116.987 246.214 116.987 246.214L116.927 245.301C115.751 244.222 116.398 243.879 116.398 243.879C116.634 243.935 116.869 243.309 116.869 243.309C116.812 242.738 117.106 242.568 117.106 242.568C117.694 241.998 117.872 241.544 117.872 241.544C117.754 241.032 117.989 240.858 117.989 240.858C118.345 240.974 118.579 240.234 118.579 240.234L118.697 241.088C118.639 241.43 118.931 241.71 118.931 241.71V242.626C119.167 242.626 119.167 243.309 119.167 243.309C118.697 243.539 118.931 244.222 118.931 244.222L119.167 244.335L119.111 246.156C118.697 246.384 118.873 247.469 118.873 247.469L119.167 247.64C119.167 247.64 119.347 248.073 119.082 248.237C118.666 248.493 118.697 249.232 118.697 249.232L118.873 249.633C118.639 249.688 118.639 250.202 118.639 250.202C118.284 250.63 118.431 252.452 118.431 252.452C117.9 252.853 117.989 253.561 117.989 253.561L118.165 253.907C117.34 255.103 118.224 255.729 118.224 255.729L118.165 256.754L118.461 256.526L118.697 256.468V255.158C118.224 255.046 118.402 254.359 118.402 254.359C118.99 254.359 118.752 253.561 118.752 253.561H118.52V253.393C119.52 252.422 119.167 251.224 119.167 251.224L119.464 251.398C119.934 251.457 120.466 252.255 120.466 252.255C120.524 252.538 120.936 252.538 120.936 252.538C121.468 252.592 121.408 253.393 121.408 253.393L121.82 253.451L121.938 253.111L121.645 253.049L121.705 252.085L121.172 251.912C120.645 250.715 119.52 250.317 119.52 250.317L119.579 248.493C119.874 248.493 119.99 247.753 119.99 247.753C120.083 247.156 120.052 244.903 120.052 244.903C120.82 244.675 120.584 243.196 120.584 243.196C120.524 242.172 120.936 242.112 120.936 242.112C121.645 241.867 121.705 240.803 121.705 240.803C122.253 240.003 122.407 240.803 122.407 240.803C122.525 241.657 122.875 241.603 122.875 241.603C123.057 241.603 123.35 241.739 123.233 242.426C123.069 243.383 123.708 243.567 123.708 243.567C123.938 244.734 123.527 245.76 123.527 245.76C122.759 246.214 122.934 247.182 122.934 247.182L123.233 247.353V249.063H123.464C123.464 249.095 123.464 249.151 123.464 249.232C123.464 249.575 123.35 250.373 123.35 250.373C123.112 250.427 123.057 251 123.057 251C122.82 251.34 123.233 251.682 123.233 251.682L123.35 252.711C123.233 253.561 123.644 254.019 123.644 254.019C123.938 254.648 123.879 255.558 123.879 255.558C123.29 256.068 123.35 257.55 123.35 257.55C123.112 257.605 122.759 258.178 122.759 258.178V260.281H123.41L123.464 258.289C123.819 258.236 123.819 258.011 123.819 258.011C123.938 257.494 124.527 257.777 124.527 257.777L125.178 258.236C125.178 258.862 126.237 259.091 126.237 259.091L126.41 259.716H126.826V258.917L126.47 258.745C125.762 257.211 124.35 256.923 124.35 256.923L124.408 256.068C124.76 256.126 124.76 255.612 124.76 255.612C124.998 254.96 124.76 254.19 124.76 254.19C124.467 254.019 124.583 253.619 124.583 253.619C124.702 253.164 125.706 253.561 125.706 253.561L126.057 253.789L126.293 254.133C126.707 254.077 126.826 254.59 126.826 254.59C127.238 255.046 128.003 254.988 128.003 254.988C128.003 255.329 128.356 255.502 128.356 255.502C128.532 256.468 129.183 256.468 129.183 256.468C129.183 256.696 129.888 257.092 129.888 257.092L130.002 257.323H130.477L130.416 256.981C129.768 256.923 129.713 256.24 129.713 256.24C129.124 256.126 128.945 255.558 128.945 255.558C129.006 254.246 127.592 254.133 127.592 254.133C126.826 253.907 126.591 253.393 126.591 253.393C126.765 252.769 124.882 252.194 124.882 252.194C123.819 251.626 124.172 250.882 124.172 250.882C124.527 250.829 124.467 250.26 124.467 250.26C124.76 249.92 124.76 249.463 124.76 249.463C124.882 248.837 124.35 248.607 124.35 248.607C124.467 248.439 124.29 247.469 124.29 247.469C124.821 247.469 124.583 246.782 124.583 246.782C125.178 246.615 124.998 246.101 124.998 246.101C124.938 245.588 125.178 245.588 125.178 245.588C125.646 244.163 125.231 242.34 125.231 242.34C124.998 241.884 125.116 241.484 125.116 241.484C125.466 241.484 125.41 241.088 125.41 241.088C125.353 240.289 125.822 240.405 125.822 240.405C125.762 240.69 126.237 240.916 126.237 240.916L126.41 241.316C126.47 241.944 126.648 242.172 126.648 242.172C127.003 242.284 127.003 242.857 127.003 242.857L127.238 243.08L127.354 244.561C127.592 244.62 127.71 245.416 127.71 245.416L127.65 246.67L128.003 246.728L127.947 247.012C127.768 246.954 127.65 247.238 127.65 247.238C127.177 247.409 127.296 247.983 127.296 247.983C127.118 247.983 126.887 248.493 126.887 248.493L126.826 250.715L127.238 250.773L127.354 249.347C127.415 247.865 128.651 247.811 128.651 247.811L128.594 249.688H128.888C129.006 249.976 128.888 250.773 128.888 250.773C128.772 251.054 128.829 251.682 128.829 251.682L129.065 251.798L129.183 253.111C129.417 253.679 130.536 253.789 130.536 253.789L130.77 254.359C131.596 254.702 132.182 255.672 132.182 255.672C132.182 256.813 132.653 256.865 132.653 256.865C132.535 257.152 132.889 257.777 132.889 257.777L133.421 257.669C133.066 257.323 133.187 256.354 133.187 256.354C133.187 256.01 133.008 255.612 133.008 255.612C132.244 255.216 131.83 253.789 131.83 253.789H131.245L131.127 253.451C131.712 253.619 132.714 253.561 132.714 253.561C132.833 253.851 134.128 253.907 134.128 253.907C134.128 254.303 135.25 254.246 135.25 254.246C136.013 254.246 136.25 254.818 136.25 254.818L136.428 257.036L136.782 257.092L136.958 255.046C137.724 254.988 138.369 255.612 138.369 255.612C138.428 255.842 138.865 255.96 138.865 255.96C139.254 255.934 139.431 255.842 139.431 255.842C138.901 254.76 136.958 254.359 136.958 254.359C135.779 252.993 132.182 252.538 132.182 252.538C131.946 252.255 130.216 252.225 130.216 252.225C130.45 251.6 130.183 250.599 130.183 250.599C129.36 249.804 129.536 246.615 129.536 246.615C128.594 245.869 128.651 243.651 128.651 243.651C127.947 242.824 127.53 241.544 127.53 241.544C127.354 240.69 127.415 240.289 127.415 240.289H127.65C127.65 240.573 127.828 240.803 127.947 241.032C128.262 241.644 129.242 242.738 129.242 242.738C129.417 243.711 129.651 244.789 129.651 244.789C130.3 244.962 130.891 245.76 130.891 245.76C131.184 246.898 133.481 246.954 133.481 246.954L133.656 247.182L133.306 247.238V249.633L133.539 249.859C133.599 250.942 134.01 250.829 134.01 250.829V251.34L134.893 251.398C134.776 250.882 134.128 250.427 134.128 250.427L134.01 249.633C133.715 249.519 133.774 248.947 133.774 248.947L134.01 248.892V247.811C134.01 247.182 134.483 247.409 134.483 247.409C134.893 247.696 134.718 247.983 134.718 247.983L135.896 248.155C137.075 249.92 138.783 249.347 138.783 249.347L138.84 249.688C138.605 250.427 139.076 251 139.076 251C139.015 251.34 139.491 251.626 139.491 251.626C139.491 251.626 139.311 251.398 139.665 251.738C140.017 252.085 139.958 253.164 139.958 253.164H140.695C140.459 253.704 141.668 253.619 141.668 253.619C142.433 253.619 142.726 254.818 142.726 254.818C142.846 255.103 143.374 254.845 143.374 254.845C143.199 253.365 141.489 252.879 141.489 252.879C140.254 252.842 140.434 252.14 140.434 252.14C140.491 251.398 140.133 250.715 140.133 250.715C139.665 250.373 139.724 249.746 139.724 249.746C140.547 249.575 141.961 249.92 141.961 249.92C141.961 250.317 142.492 250.773 142.492 250.773C142.905 250.773 143.023 251.224 143.023 251.224C143.613 252.483 145.379 252.313 145.379 252.313C145.475 253.088 146.439 253.049 146.439 253.049C147.107 253.144 147.38 253.675 147.38 253.675C148.324 253.619 148.267 254.303 148.267 254.303C148.267 254.59 148.736 254.475 148.736 254.475C148.736 253.221 146.316 252.194 146.316 252.194C146.671 252.194 146.91 252.024 146.91 252.024C147.03 251.626 147.441 252.024 147.441 252.024C147.733 252.367 149.031 252.085 149.031 252.085C149.147 251.738 149.797 251.966 149.797 251.966C149.911 252.194 150.325 252.024 150.325 252.024C150.206 250.942 148.676 251.224 148.676 251.224C148.444 251.457 147.733 251.286 147.733 251.286C146.202 250.373 145.379 251.571 145.379 251.571C145.024 251.682 144.672 251.398 144.672 251.398C144.554 250.657 143.49 250.317 143.49 250.317C143.023 248.267 140.547 248.549 140.547 248.549C137.43 248.493 137.017 247.469 137.017 247.469C137.549 247.296 138.783 247.582 138.783 247.582C139.061 247.771 139.254 247.582 139.254 247.582C139.491 247.296 140.722 247.469 140.722 247.469C141.018 247.696 142.492 247.696 142.492 247.696C142.61 247.865 143.49 248.035 143.49 248.035C143.788 248.607 144.613 248.267 144.613 248.267C144.672 247.923 145.141 248.035 145.141 248.035C145.912 248.095 145.614 247.409 145.614 247.409C145.32 247.409 144.786 247.64 144.786 247.64C143.731 247.811 144.14 246.728 144.14 246.728C144.433 246.498 144.379 245.932 144.379 245.932C143.906 245.869 143.849 246.556 143.849 246.556C143.613 246.498 143.256 246.898 143.256 246.898C143.142 247.296 142.846 247.182 142.846 247.182C142.433 246.444 139.781 246.728 139.781 246.728C138.84 246.444 136.013 246.615 136.013 246.615C134.954 245.076 133.362 245.416 133.362 245.416C131.438 244.974 131.421 243.651 131.421 243.651C131.478 242.738 130.3 241.772 130.3 241.772C129.713 240.858 130.831 241.261 130.831 241.261C131.303 241.316 131.712 241.884 131.712 241.884H133.066C133.306 242.513 134.069 242.626 134.069 242.626L135.779 242.738C138.369 244.452 139.431 243.763 139.431 243.763C139.665 243.478 140.254 243.595 140.254 243.595C140.491 244.107 141.548 243.993 141.548 243.993C141.9 244.505 142.905 244.561 142.905 244.561C144.219 244.107 144.201 244.561 144.201 244.561C144.359 244.974 144.965 245.02 144.965 245.02C146.143 245.188 146.495 244.452 146.495 244.452C149.911 246.498 151.032 245.869 151.032 245.869C151.308 245.797 151.209 245.416 151.209 245.416C148.025 245.188 146.671 243.539 146.671 243.539L142.492 243.478C141.604 242.112 138.783 242.513 138.783 242.513C138.253 242.568 137.724 242.284 137.724 242.284C136.782 242.055 135.779 240.974 135.779 240.974L134.069 240.858C133.833 240.573 132.535 239.833 132.535 239.833L132.419 239.205C132.36 238.582 129.945 238.011 129.945 238.011C128.945 237.554 128.888 237.497 128.888 237.497C128.416 236.534 127.354 235.563 127.354 235.563L127.177 234.025C126.648 233.056 126.328 232.286 126.328 232.286C125.859 231.602 126.097 230.295 126.097 230.295C125.624 229.951 125.706 229.124 125.706 229.124C125.941 229.185 125.999 228.667 125.999 228.667C126.112 227.575 126.237 226.503 126.237 226.503C125.893 226.366 126.116 225.877 126.116 225.877C126.251 225.486 126.179 225.251 126.179 225.251C126.648 224.793 126.179 224.227 126.179 224.227C125.762 223.768 126.057 223.257 126.057 223.257C126.36 221.967 126.112 220.812 126.112 220.812C125.893 220.181 126.116 219.724 126.116 219.724C126.356 219.268 126.293 219.155 126.293 219.155C126.116 218.587 126.293 218.014 126.293 218.014C126.293 217.79 126.237 217.39 126.237 217.39C126.47 217.218 127.118 217.331 127.118 217.331C127.296 217.616 128.888 217.504 128.888 217.504L129.417 217.79C133.187 217.883 134.042 221.83 134.042 221.83C134.454 223.256 135.129 223.596 135.129 223.596C135.011 224.58 135.424 224.625 135.424 224.625C136.307 225.082 136.25 225.424 136.25 225.424C136.543 226.159 136.188 228.831 136.188 229.009C136.194 229.755 135.481 229.863 135.481 229.863C134.599 229.977 133.833 230.093 133.833 230.093C131.536 230.207 131.83 231.517 131.83 231.517C131.006 231.685 131.122 233.585 131.122 233.585C132.402 233.622 135.37 233.585 135.37 233.585C135.681 233.255 135.718 232.94 135.718 232.94C136.634 233.016 136.603 232.144 136.603 232.144C136.603 231.402 138.015 230.718 138.015 230.718C139.123 230.396 139.076 229.863 139.076 229.863C139.12 229.059 139.586 228.839 139.586 228.839C140.094 228.358 139.887 227.176 139.887 227.176C139.242 227.114 139.431 226.503 139.431 226.503C139.603 225.935 139.431 225.424 139.431 225.424C138.722 224.625 139.076 223.596 139.076 223.596C139.316 223.149 139.215 221.953 139.215 221.953C140.41 221.803 141.191 221.035 141.191 221.035C141.467 222.076 141.727 222.457 141.727 222.457C144.022 226.145 148.324 226.329 148.324 226.329C148.967 226.639 149.719 226.563 149.719 226.563C150.588 227.411 152.066 227.164 152.066 227.164C152.318 227.988 152.665 227.749 152.828 228.114C152.887 228.874 153.516 229.728 153.516 229.728C153.457 232.034 153.151 232.086 153.151 232.086C152.621 232.174 152.271 232.413 152.271 232.413C150.12 232.426 150.244 233.801 150.244 233.801C150.246 234.798 151.275 234.598 151.275 234.598C151.128 235.397 152.505 235.27 152.505 235.27C152.538 236.109 153.939 235.464 153.939 235.464C154.418 235.189 154.777 235.175 154.777 235.175C156.748 234.732 156.054 233.412 156.054 233.412C156.781 233.44 156.686 231.77 156.686 231.77L156.453 231.744C156.273 231.126 156.214 229.842 156.214 229.842C155.979 229.386 155.809 229.12 155.809 229.12C155.925 227.407 155.077 227.253 155.077 227.253C155.134 226.114 154.959 225.717 154.959 225.717C154.684 224.547 152.621 224.625 152.621 224.625C152.092 223.596 150.679 223.257 150.679 223.257C150.167 223.086 150.206 222.457 150.206 222.457C150.25 222.002 149.559 221.205 149.559 221.205C147.952 219.122 148.789 217.266 148.789 217.266C150.167 214.719 149.984 213.667 149.984 213.667C149.984 211.842 149.147 210.495 149.147 210.495C148.851 209.985 149.265 209.927 149.265 209.927C150.189 210.189 150.558 211.293 150.558 211.293C150.855 212.204 151.505 212.549 151.505 212.549L151.682 213.288C152.151 213.176 152.271 213.766 152.271 213.766C152.333 216.044 153.744 216.477 153.744 216.477L153.92 217.066C154.095 217.006 154.57 217.278 154.57 217.278C154.77 219.045 157.219 219.839 157.219 219.839C157.483 221.391 158.51 221.664 158.51 221.664C160.104 222.576 159.9 223.442 160.006 224.245C160.08 224.807 160.693 224.963 160.693 224.963C160.693 225.477 161.518 225.766 161.518 225.766C161.927 226.201 161.927 226.62 161.927 226.62C163.164 226.673 162.635 225.251 162.635 225.251C162.578 224.739 162.891 224.87 162.891 224.87C162.891 223.903 162.398 223.545 162.398 223.545C162.006 222.972 162.928 223.199 162.928 223.199C163.009 221.716 161.869 221.151 161.869 221.151C161.518 220.672 161.634 219.785 161.634 219.785C161.585 216.259 158.044 214.315 158.044 214.315C156.743 213.743 156.743 213.347 156.743 213.347C156.044 212.19 155.215 211.919 155.215 211.919C154.615 211.787 154.506 211.409 154.506 211.409C153.947 208.856 152.217 208.25 152.217 208.25C150.822 207.694 148.911 207.593 148.911 207.593C145.281 202.976 138.605 203.092 138.605 203.092C130.947 203.318 126.591 202.69 126.591 202.69C126.36 202.203 126.356 201.494 126.356 201.494C126.323 201.158 126.293 200.813 126.293 200.813L126.366 200.11L126.31 199.314C126.13 199.204 126.249 198.135 126.249 198.135C126.525 197.696 126.231 197.347 126.231 197.347C126.083 196.968 126.269 196.742 126.269 196.742C126.559 196.575 126.378 195.587 126.378 195.587C126.085 195.203 126.176 194.763 126.176 194.763C126.354 194.65 126.237 194.204 126.237 194.204C126.488 193.902 126.579 193.463 126.579 193.463C126.815 193.005 126.682 190.732 126.682 190.732V190.502C126.341 190.291 126.468 188.954 126.468 188.954C126.89 187.065 126.591 184.406 126.591 184.406L126.41 184.35C126.591 182.582 126.451 182.173 126.451 182.173C126.067 181.99 126.176 181.422 126.176 181.422C126.36 180.781 126.237 180.244 126.237 180.244C126.03 178.069 126.887 177.057 126.887 177.057C129.713 175.628 131.596 171.532 131.596 171.532C131.551 174.307 132.477 173.984 132.477 173.984C133.215 173.996 133.421 172.841 133.421 172.841C134.306 173.351 134.247 172.495 134.247 172.495C134.365 172.044 134.599 172.044 134.599 172.044C134.819 172.753 135.599 172.671 135.599 172.671C136.25 172.611 135.954 172.155 135.954 172.155C135.752 170.336 136.188 170.278 136.188 170.278C137.075 169.824 137.075 169.48 137.075 169.48C137.075 168.911 137.31 168.855 137.31 168.855C137.485 169.196 138.076 169.422 138.076 169.422C138.604 169.938 139.076 171.419 139.076 171.419C140.607 171.247 141.141 171.759 141.141 171.759C141.9 172.327 142.787 172.443 142.787 172.443C144.85 172.514 143.731 171.532 143.731 171.532C143.256 171.302 143.256 171.076 143.256 171.076C143.142 170.564 143.731 170.336 143.731 170.336C143.023 170.051 143.023 169.65 143.023 169.65C143.051 168.94 143.849 169.139 143.849 169.139C143.788 168.624 144.26 168.624 144.26 168.624C144.908 169.308 145.614 169.308 145.614 169.308C146.086 169.367 146.38 168.969 146.38 168.969C146.966 168.283 147.084 168.969 147.084 168.969C149.174 171.161 151.682 170.161 151.682 170.161C152.917 168.057 151.505 166.573 151.505 166.573C150.679 165.545 150.325 164.814 150.325 164.814C150.15 164.182 150.034 164.126 150.034 164.126C148.676 163.615 148.558 163.099 148.558 163.099C148.496 162.358 147.853 161.958 147.853 161.958C147.929 161.676 147.558 161.559 147.558 161.559C146.966 161.518 146.91 161.79 146.91 161.79C146.671 161.79 146.316 161.676 146.316 161.676C147.262 161.164 147.143 160.822 147.143 160.822C147.558 161.278 148.38 161.451 148.38 161.451C149.324 161.502 149.324 160.822 149.324 160.822L150.206 160.882L150.088 161.049C151.443 161.049 151.209 161.278 151.209 161.278C151.842 161.832 151.916 161.164 151.916 161.164C151.916 160.252 152.683 159.907 152.683 159.907C153.683 159.505 153.622 158.827 153.622 158.827C154.57 159.109 155.925 158.539 155.925 158.539C157.98 158.143 157.096 156.944 157.096 156.944C157.158 155.522 155.215 154.669 155.215 154.669C154.035 153.813 153.744 153.641 153.744 153.641C154.154 153.416 154.506 153.758 154.506 153.758C154.745 154.386 155.686 154.214 155.686 154.214C156.628 154.556 157.041 153.813 157.041 153.813C157.219 154.386 157.689 154.501 157.689 154.501C157.867 154.612 157.803 155.068 157.803 155.068C157.096 155.178 157.394 155.581 157.394 155.581C157.275 157.687 160.456 158.769 160.456 158.769C160.986 159.109 161.751 158.425 161.751 158.425C162.223 160.882 164.7 161.049 164.7 161.049C166.097 160.59 165.227 156.372 165.227 156.372C165.934 156.206 166.405 156.662 166.405 156.662C166.755 157.745 167.996 157.914 167.996 157.914C170.411 158.313 170.939 157.514 170.939 157.514C171.281 155.24 168.054 153.47 168.054 153.47C166.538 152.747 165.993 152.104 165.993 152.104C169.054 151.534 168.701 148.684 168.701 148.684C167.874 147.601 165.993 148.403 165.993 148.403C165.345 148.913 164.757 149.029 164.757 149.029C162.928 149.199 163.049 149.997 163.049 149.997C161.339 151.42 160.573 150.165 160.573 150.165C160.015 149.47 159.336 149.425 159.336 149.425C157.98 149.313 158.395 151.02 158.395 151.02C155.686 148.913 154.035 149.483 154.035 149.483C153.388 149.769 152.564 149.483 152.564 149.483C151.579 149.455 152.032 148.971 152.032 148.971C153.097 147.944 155.097 147.148 155.097 147.148C154.918 148.004 157.394 147.209 157.394 147.209C157.98 148.232 159.747 148.403 159.747 148.403C162.282 148.971 164.288 146.978 164.288 146.978C163.342 146.653 163.106 146.01 163.106 146.01C162.516 144.644 160.397 143.673 160.397 143.673C159.868 143.216 160.927 143.445 160.927 143.445C161.162 144.073 162.166 143.731 162.166 143.731C162.223 143.445 162.812 143.56 162.812 143.56C164.051 144.928 164.815 144.469 164.815 144.469C164.465 145.328 165.934 145.609 165.934 145.609C166.111 147.434 167.051 147.549 167.051 147.549C167.699 147.932 167.76 147.209 167.76 147.209C167.821 146.891 168.113 147.091 168.113 147.091C169.054 148.799 170.057 148.457 170.057 148.457C172.558 147.72 171.355 145.097 171.355 145.097C171.237 144.928 171.469 144.814 171.469 144.814C172.06 145.044 172 144.527 172 144.527C171.954 143.587 173.122 144.073 173.122 144.073C174.59 144.698 174.709 145.268 174.709 145.268C174.59 145.726 175.356 146.01 175.356 146.01C176.419 146.354 176.241 147.037 176.241 147.037C176.359 148.004 176.535 148.232 176.535 148.232C177.005 148.684 177.417 148.175 177.417 148.175C177.772 147.72 178.126 148.117 178.126 148.117C178.186 148.745 179.481 149.313 179.481 149.313C180.364 149.599 180.894 148.117 180.894 148.117C181.736 146.524 180.603 145.44 180.603 145.44C180.364 145.097 180.716 145.097 180.716 145.097C182.015 146.01 182.133 145.956 182.133 145.956C182.897 146.183 182.544 145.664 182.544 145.664C182.278 144.786 183.133 144.928 183.133 144.928C185.43 145.895 185.312 143.787 185.312 143.787C185.989 140.924 181.894 140.599 181.894 140.599V140.599ZM100.758 161.025C100.758 161.025 100.301 161.323 99.9962 160.911C99.9962 160.911 100.324 160.892 100.393 160.794C100.454 160.703 100.634 160.35 100.788 160.384C100.788 160.384 100.879 160.911 100.758 161.025" fill="#D1B48F"/>
<path fill-rule="evenodd" clip-rule="evenodd" d="M104.608 160.236C104.608 160.236 105.609 160.124 105.903 158.587C105.903 158.587 106.612 158.529 106.726 158.013C106.726 158.013 107.183 158.174 107.257 157.845C107.257 157.845 107.482 157.391 107.964 157.957C107.964 157.957 108.908 158.831 110.32 157.785C110.32 157.785 110.675 157.674 110.735 157.845C110.735 157.845 110.024 158.243 110.024 158.587C110.024 158.587 108.908 158.587 108.671 159.037C108.671 159.037 107.67 159.037 107.728 159.554C107.728 159.554 107.492 159.894 107.964 160.124C107.964 160.124 108.084 160.349 107.906 160.522C107.906 160.522 107.508 160.58 107.552 160.982C107.552 160.982 107.109 161.278 107.315 161.949C107.315 161.949 107.611 162.618 108.259 162.515C108.259 162.515 108.802 162.445 108.908 162.061C108.908 162.061 109.32 161.664 109.497 162.003C109.497 162.003 109.73 162.347 110.082 162.177C110.082 162.177 110.735 162.122 110.793 161.664C110.793 161.664 111.324 161.603 111.38 161.949C111.38 161.949 111.324 162.233 111.559 162.462L111.324 162.803C111.324 162.803 110.497 163.089 110.91 163.942C110.91 163.942 111.264 164.854 112.56 163.998C112.56 163.998 113.032 163.713 113.383 164.053C113.383 164.053 114.385 164.281 114.679 163.657C114.679 163.657 115.447 163.488 115.681 164.113C115.681 164.113 116.86 164.968 117.388 163.257C117.388 163.257 117.743 162.659 118.86 162.803C118.86 162.803 121.1 163.201 121.277 159.783L119.745 159.728C119.745 159.728 119.804 158.759 120.334 158.759C120.334 158.759 120.569 158.701 120.452 158.471C120.452 158.471 120.63 158.869 121.16 158.928C121.16 158.928 121.455 158.928 121.514 159.44C121.514 159.44 121.455 160.296 122.277 160.409C122.277 160.409 122.691 160.58 122.572 160.923C122.572 160.923 122.043 161.208 122.338 161.949C122.338 161.949 121.868 162.233 123.872 162.515C123.872 162.515 124.576 162.347 124.927 163.089C124.927 163.089 125.28 164.512 128.051 164.339C128.051 164.339 128.111 165.308 127.461 165.759C127.461 165.759 125.988 166.22 126.34 167.983C126.34 167.983 126.637 168.444 127.582 167.811C127.582 167.811 127.992 167.926 127.934 168.155C127.934 168.155 128.521 168.326 128.935 168.043C128.935 168.043 129.23 168.499 129.112 168.956C129.112 168.956 128.992 169.466 129.288 169.982C129.288 169.982 129.477 171.775 128.051 172.203C128.051 172.203 125.516 172.884 124.636 175.562L124.457 175.106H124.164C124.164 175.106 124.046 174.822 124.457 174.423C124.457 174.423 125.399 173.397 125.34 171.803C125.34 171.803 125.695 171.405 125.695 171.005C125.695 171.005 126.164 170.55 125.872 169.868C125.872 169.868 125.931 169.41 125.516 169.297C125.516 169.297 125.28 168.613 125.576 168.444C125.576 168.444 125.811 167.926 125.695 167.299C125.695 167.299 126.046 166.676 125.872 166.505C125.872 166.505 125.516 166.22 125.163 166.335C125.163 166.335 124.401 165.48 124.401 165.026C124.401 165.026 124.325 164.223 123.397 164.223C123.397 164.223 122.559 164.27 122.691 165.075C122.691 165.075 122.978 165.82 122.572 166.162C122.572 166.162 122.043 165.992 122.043 167.075C122.043 167.075 122.277 167.811 121.925 167.874C121.925 167.874 120.452 167.414 120.808 168.956C120.808 168.956 120.747 169.128 120.392 169.24C120.392 169.24 119.215 169.18 117.862 170.55C117.862 170.55 117.625 170.949 117.095 170.606C117.095 170.606 114.561 168.043 113.268 167.473C111.971 166.903 111.735 167.345 110.852 166.676C110.852 166.676 110.32 165.82 108.908 165.651C108.908 165.651 107.081 165.588 107.435 164.396L107.728 164.339C107.728 164.339 108.14 163.257 107.315 162.743C107.315 162.743 106.639 162.294 106.315 161.835C106.315 161.835 105.193 160.809 104.608 160.236" fill="#006086"/>
<path fill-rule="evenodd" clip-rule="evenodd" d="M96.0093 146.925C96.0093 146.925 97.3433 146.851 97.6575 146.55C97.6575 146.55 97.62 147.689 98.3255 148.062C98.3255 148.062 96.7146 148.031 96.3235 148.711C96.3235 148.711 96.48 147.457 96.0093 147.457V146.925" fill="#006086"/>
<path fill-rule="evenodd" clip-rule="evenodd" d="M98.5222 122.051C98.5222 122.051 99.7791 121.67 100.091 121.066C100.091 121.066 100.251 120.799 100.444 120.838C100.444 120.838 100.723 121.29 100.328 121.52C100.328 121.52 100.132 121.825 100.17 121.977C100.17 121.977 99.5812 122.548 98.5222 122.051" fill="#006086"/>
<path fill-rule="evenodd" clip-rule="evenodd" d="M121.221 126.836C121.221 126.836 121.966 126.873 122.395 126.647C122.395 126.647 126.714 124.978 128.366 126.455C128.366 126.455 128.679 126.836 128.482 127.594C128.482 127.594 129.071 127.289 129.583 127.289C129.583 127.289 130.246 127.253 130.408 126.797C130.408 126.797 130.128 125.775 131.66 125.47C131.66 125.47 131.505 124.138 132.958 124.099L133.033 123.914C133.033 123.914 132.448 122.622 131.66 122.696C131.66 122.696 130.758 122.661 130.758 121.862C130.758 121.862 130.564 121.178 129.657 120.154C129.657 120.154 128.482 119.125 128.561 118.063L128.521 116.279L128.323 116.355C128.323 116.355 128.209 116.203 128.091 116.545C128.091 116.545 127.933 117.114 128.131 117.229L128.286 117.263C128.286 117.263 128.873 118.063 127.536 118.482C127.536 118.482 127.07 118.634 126.714 118.556C126.714 118.556 125.846 118.634 125.774 119.356C125.774 119.356 125.931 119.922 124.472 120.116C124.472 120.116 123.923 120.116 124.008 120.643C124.008 120.643 123.924 120.953 124.434 121.103C124.434 121.103 124.908 121.14 124.787 121.67C124.787 121.67 124.908 122.09 124.164 122.469C124.164 122.469 123.69 123.001 123.139 123.038C123.139 123.038 122.358 123.38 122.554 124.063C122.554 124.063 122.631 124.444 122.316 124.671C122.316 124.671 121.183 125.354 121.221 126.836" fill="#006086"/>
<path fill-rule="evenodd" clip-rule="evenodd" d="M116.917 138.592C116.917 138.592 118.098 140.298 120.216 138.932L120.514 139.046C120.514 139.046 119.746 139.728 119.628 141.552L119.45 141.497C119.45 141.497 119.337 140.188 118.04 140.244C118.04 140.244 116.096 139.959 116.917 138.592" fill="#006086"/>
<path fill-rule="evenodd" clip-rule="evenodd" d="M116.563 140.357C116.563 140.357 117.271 141.497 118.686 141.323C118.686 141.323 119.039 142.75 119.922 143.946C119.922 143.946 120.216 146.107 120.392 147.192C120.392 147.192 119.336 146.625 119.039 146.682C119.039 146.682 119.565 145.029 118.92 144.8C118.92 144.8 119.097 143.377 118.215 143.433C118.215 143.433 117.566 143.262 117.271 142.006C117.271 142.006 117.206 141.709 115.917 142.006C115.917 142.006 116.682 141.098 116.563 140.357" fill="#006086"/>
<path fill-rule="evenodd" clip-rule="evenodd" d="M100.017 160.528L100.029 160.373C100.029 160.373 100.444 160.431 100.475 160.274C100.475 160.274 100.607 160.074 100.695 160.087C100.695 160.087 100.815 159.905 100.918 159.916C100.918 159.916 101.255 160.874 100.017 160.528Z" fill="#006086"/>
<path fill-rule="evenodd" clip-rule="evenodd" d="M133.276 145.516C133.276 145.516 132.963 145.399 132.885 145.592L132.843 147.374L133.077 147.45C133.077 147.45 133 146.048 133.276 146.087V145.516" fill="#006086"/>
<path fill-rule="evenodd" clip-rule="evenodd" d="M130.49 141.982C130.49 141.982 130.371 143.045 130.921 143.236C130.921 143.236 132.098 143.503 131.901 144.489L131.589 144.374C131.589 144.374 130.371 143.312 129.98 143.503C129.98 143.503 129.699 142.819 130.054 142.819C130.054 142.819 129.857 141.982 130.49 141.982" fill="#006086"/>
<path fill-rule="evenodd" clip-rule="evenodd" d="M134.772 130.664C134.772 130.664 134.003 132.262 135.471 132.146C135.471 132.146 135.533 132.345 135.471 132.601C135.471 132.601 135.152 132.429 135.12 133.398C135.12 133.398 135.179 134.085 134.945 134.225C134.945 134.225 134.799 134.452 134.799 134.907C134.799 134.907 134.237 135.048 134.447 135.705C134.447 135.705 134.447 136.106 134.828 136.161C134.828 136.161 134.915 136.534 134.799 136.7C134.799 136.7 134.476 136.675 134.476 137.189C134.476 137.189 134.616 138.698 133.562 138.668C133.562 138.668 133.357 138.668 133.296 138.499C133.296 138.499 133.177 138.214 132.971 138.24C132.971 138.24 132.746 136.722 133.151 135.307C133.151 135.307 133.883 132.916 134.121 132.375C134.121 132.375 134.356 132.146 134.447 131.749C134.447 131.749 134.265 130.864 134.772 130.664" fill="#006086"/>
<path fill-rule="evenodd" clip-rule="evenodd" d="M142.309 135.25C142.309 135.25 142.309 134.822 142.753 134.765C142.753 134.765 142.689 134.48 143.134 134.48C143.134 134.48 143.366 134.568 143.191 134.88C143.191 134.88 143.366 135.077 143.518 135.023C143.518 135.023 143.602 135.562 143.252 135.621C143.252 135.621 143.311 136.106 142.925 136.047C142.925 136.047 142.72 136.018 142.753 135.792C142.753 135.792 142.368 135.705 142.486 135.504C142.486 135.504 142.189 135.533 142.309 135.25" fill="#006086"/>
<path fill-rule="evenodd" clip-rule="evenodd" d="M163.274 132.752C163.274 132.752 163.237 132.22 163.825 132.183C163.825 132.183 164.022 131.577 163.707 131.348C163.707 131.348 163.475 130.551 164.493 130.551C164.493 130.551 165.043 129.984 165.474 130.438C165.474 130.438 165.673 130.664 165.629 130.854C165.629 130.854 166.024 130.969 165.942 131.501C165.942 131.501 166.454 131.765 167.635 131.577C167.635 131.577 167.672 132.262 167.127 132.146C167.127 132.146 166.339 131.841 165.785 132.414C165.785 132.414 165.673 132.867 164.964 132.867L163.274 132.752" fill="#006086"/>
<path fill-rule="evenodd" clip-rule="evenodd" d="M163.63 135.831C163.63 135.831 163.941 136.362 164.416 136.362C164.882 136.362 164.493 136.4 164.493 136.4C164.493 136.4 164.73 136.362 164.846 136.134C164.846 136.134 165.316 135.831 165.474 136.283C165.474 136.283 165.631 136.892 166.615 136.971C166.615 136.971 166.22 137.047 166.141 137.234C166.141 137.234 165.75 137.197 165.828 137.692C165.828 137.692 165.552 137.844 165.316 137.655C165.316 137.655 164.729 137.275 164.178 137.349C164.178 137.349 163.983 137.008 163.707 137.084C163.707 137.084 163.357 136.246 163.63 135.831" fill="#006086"/>
<path fill-rule="evenodd" clip-rule="evenodd" d="M129.96 163.004C129.96 163.004 130.265 163.376 130.979 163.234C130.979 163.234 130.744 163.875 130.272 163.875C130.272 163.875 129.843 163.345 129.96 163.004" fill="#006086"/>
<path fill-rule="evenodd" clip-rule="evenodd" d="M143.447 163.514C143.447 163.514 144.078 162.757 145.017 162.908L145.094 163.514H143.447Z" fill="#006086"/>
<path fill-rule="evenodd" clip-rule="evenodd" d="M143.31 159.322C143.31 159.322 143.775 158.746 144.136 158.918V159.43L143.31 159.322Z" fill="#006086"/>
<path fill-rule="evenodd" clip-rule="evenodd" d="M151.671 157.095L152.263 157.154L152.438 157.27V157.494H151.968L151.671 157.095Z" fill="#006086"/>
<path fill-rule="evenodd" clip-rule="evenodd" d="M148.748 153.981C148.748 153.981 149.652 153.91 149.612 154.933C149.612 154.933 149.926 155.314 150.435 155.543C150.435 155.543 150.792 156.187 150.123 156.53C150.123 156.53 150.123 155.847 149.889 155.803C149.889 155.803 149.612 155.694 149.573 155.543C149.534 155.389 149.534 155.389 149.534 155.389C149.534 155.389 149.221 155.163 148.595 155.654C148.595 155.654 148.238 156.337 147.372 156.145C147.372 156.145 147.414 155.768 147.649 155.694C147.649 155.694 148.673 155.084 148.706 154.819L148.748 153.981" fill="#006086"/>
<path fill-rule="evenodd" clip-rule="evenodd" d="M149.103 152.579C149.103 152.579 150.749 152.844 150.909 152.235C150.909 152.235 151.298 151.364 150.317 151.401C150.317 151.401 149.416 150.985 149.103 152.579Z" fill="#006086"/>
<path fill-rule="evenodd" clip-rule="evenodd" d="M148.198 147.186C148.198 147.186 148.982 147.186 149.179 148.054C149.179 148.054 149.221 148.511 149.652 148.589C149.652 148.589 149.534 149.197 149.021 149.466C149.021 149.466 148.944 149.766 148.787 149.842C148.787 149.842 148.748 150.108 148.553 150.221L148.435 150.108V149.425C148.435 149.425 148.121 149.197 148.083 148.854C148.083 148.854 148.316 148.553 148.472 148.511C148.472 148.511 148.595 147.717 148.354 147.681C148.354 147.681 148.003 147.374 148.198 147.186" fill="#006086"/>
<path fill-rule="evenodd" clip-rule="evenodd" d="M150.983 147.681L154.243 144.945C154.243 144.945 153.343 144.793 153.459 144.072C153.577 143.348 153.42 143.958 153.42 143.958C153.42 143.958 152.991 143.88 152.991 143.766C152.991 143.766 152.479 143.919 152.321 143.612C152.321 143.612 152.87 143.992 152.555 144.604C152.555 144.604 152.833 145.289 151.495 145.363C151.495 145.363 151.342 145.323 151.417 145.745C151.417 145.745 151.85 146.577 151.143 146.805C151.143 146.805 150.631 147.11 150.983 147.681" fill="#006086"/>
<path fill-rule="evenodd" clip-rule="evenodd" d="M164.426 154.024H164.692C164.692 154.024 164.852 154.535 164.66 154.831L164.5 154.874C164.5 154.831 164.426 154.024 164.426 154.024" fill="#006086"/>
<path fill-rule="evenodd" clip-rule="evenodd" d="M85.4104 135.107C85.4104 135.107 86.2763 135.868 86.037 136.931C86.037 136.931 89.1782 137.162 92.0854 140.424L92.2406 140.123C92.2406 140.123 90.8409 139.336 90.9172 138.804C90.9961 138.273 91.2997 137.994 91.9284 138.147C91.9284 138.147 92.6778 138.022 92.0085 137.559C92.0085 137.559 91.3766 136.88 92.2406 136.645C92.2406 136.645 92.6554 136.475 92.2406 135.846C92.2406 135.846 91.6766 135.215 92.2406 134.822C92.2406 134.822 93.1183 134.329 93.7159 134.88C93.7159 134.88 95.009 136.077 96.4258 136.134C96.4258 136.134 96.7757 136.645 96.6027 137.728C96.6027 137.728 97.132 137.273 97.6618 137.559C97.6618 137.559 97.8953 136.245 98.6606 136.306C98.6606 136.306 99.6604 136.134 99.7215 137.216C99.7215 137.216 99.4863 139.041 100.957 139.095C100.957 139.095 101.486 139.041 101.607 139.21C101.607 139.21 101.858 138.176 102.373 138.24C102.373 138.24 103.566 138.157 103.55 139.494C103.55 139.494 103.581 139.991 103.257 140.123C103.257 140.123 102.841 140.862 103.671 141.317C103.671 141.317 103.788 141.488 103.788 141.827C103.788 141.827 102.078 142.342 101.845 143.141C101.845 143.141 102.733 143.037 103.317 143.368C103.317 143.368 103.514 143.528 103.788 143.56C103.881 143.571 103.977 143.568 104.081 143.541C104.493 143.425 104.905 142.797 105.434 142.912C105.434 142.912 105.938 143.001 105.906 143.88C105.906 143.88 105.883 144.28 106.317 144.108C106.317 144.108 106.792 143.766 107.146 144.108C107.146 144.108 107.497 144.452 107.437 144.792C107.437 144.792 107.968 144.963 108.026 144.792C108.026 144.792 108.498 144.279 108.852 144.963C108.852 144.963 109.205 145.648 108.852 145.934C108.852 145.934 111.545 146.765 115.331 146.732C115.331 146.732 115.167 146.068 115.167 145.729C115.167 145.729 113.71 145.71 113.684 145.02C113.684 145.02 113.567 144.279 114.451 144.279C114.451 144.279 114.784 144.008 114.273 143.825C114.273 143.825 113.71 143.398 114.451 143.254L114.504 142.969L114.037 142.342C114.037 142.342 110.739 142.797 111.385 138.644C111.385 138.644 110.5 138.016 110.326 137.728C110.326 137.728 108.452 139.525 106.921 139.466C106.921 139.466 104.601 139.774 104.434 136.245C104.434 136.245 104.375 134.88 106.317 134.026L106.262 133.456C106.262 133.456 102.541 134.762 102.086 134.177C102.086 134.177 100.202 131.73 102.903 130.551C102.903 130.551 103.728 130.605 103.904 130.209C103.904 130.209 103.671 129.015 104.671 129.067C104.671 129.067 105.434 128.842 105.556 129.413C105.556 129.413 106.166 129.872 106.394 129.141C106.394 129.141 106.713 129.023 107.497 129.067C107.497 129.067 107.326 128.65 106.613 128.727C106.613 128.727 103.493 129.067 101.845 127.474L99.3087 127.306C99.3087 127.306 99.2489 127.816 99.5455 127.873C99.5455 127.873 100.545 127.703 100.666 128.671C100.666 128.671 100.944 129.468 99.6604 129.923C99.6604 129.923 99.2489 130.322 99.8394 130.605C99.8394 130.605 100.372 131.12 99.6052 131.519C99.6052 131.519 99.2489 132.146 99.7808 132.545C99.7808 132.545 100.606 132.885 99.4863 133.743C99.4863 133.743 98.7893 134.138 98.3751 133.854C98.3751 133.854 97.7039 133.734 97.6618 133.345C97.6618 133.345 97.0721 133.173 96.9531 133.456C96.9531 133.456 96.2136 133.588 96.2136 133.362C96.2136 133.362 95.8256 132.07 96.0136 131.519C96.0136 131.519 95.9532 131.006 95.3661 130.836C95.3661 130.836 94.8341 131.006 94.8961 128.784L94.8341 127.646L94.6015 127.703C94.6015 127.703 94.8341 128.217 93.7159 128.158C93.7159 128.158 93.0676 129.355 92.4181 129.128C92.4181 129.128 92.7153 130.379 92.1854 130.265C92.1854 130.265 92.3017 130.893 91.8297 130.721C91.8297 130.721 91.6535 131.348 92.0085 131.519C92.0085 131.519 91.9474 132.03 92.4181 132.146C92.4181 132.146 92.4785 132.658 91.9474 132.601C91.9474 132.601 91.2997 132.545 91.0631 132.828C91.0631 132.828 90.7798 133.175 90.1209 133C90.1209 133 89.2387 133.512 89.2387 134.48C89.2387 134.48 88.8278 134.538 87.8259 134.709C87.8259 134.709 87.202 134.346 86.7647 134.765C86.5288 134.994 86.1164 135.504 85.4104 135.107" fill="#006086"/>
<path fill-rule="evenodd" clip-rule="evenodd" d="M116.507 132.03C116.507 132.03 117.685 130.379 117.982 130.438C117.982 130.438 118.749 130.949 119.099 130.893C119.099 130.893 119.22 131.634 119.923 131.861C119.923 131.861 120.1 132.828 120.694 133.173C120.694 133.173 120.222 134.366 120.93 134.709C120.93 134.709 121.692 134.937 121.931 134.822C121.931 134.822 122.583 136.503 124.46 136.362C124.46 136.362 125.663 136.372 126.166 135.846C126.166 135.846 127.018 134.598 125.521 133.512C125.521 133.512 123.872 132.2 123.872 131.749C123.872 131.749 123.521 131.348 122.813 131.348C122.813 131.348 122.458 130.721 122.166 130.721C122.166 130.721 121.815 130.037 122.983 130.379C122.983 130.379 123.637 130.265 123.929 130.836C123.929 130.836 124.744 131.558 125.225 130.551C125.225 130.551 125.342 129.468 126.466 129.695C126.466 129.695 128.056 129.923 128.349 128.727C128.349 128.727 128.703 128.842 128.587 129.239C128.587 129.239 127.169 130.132 127.465 130.949C127.465 130.949 128.173 132.828 130.292 132.601C130.292 132.601 131.468 132.375 131.882 131.69C131.882 131.69 132.118 132.429 131.823 132.944C131.823 132.944 131.172 134.438 131.823 137.216L131.413 137.047C131.413 137.047 130.236 136.7 130.113 134.994C130.113 134.994 129.412 134.822 129.351 135.164C129.351 135.164 128.349 135.392 128.234 134.88C128.234 134.88 126.997 134.366 126.58 135.45C126.58 135.45 126.431 136.08 126.997 136.245C126.997 136.245 127.172 136.589 126.874 136.7C126.874 136.7 126.289 137.16 127.051 137.616C127.051 137.616 127.391 138.15 126.935 138.24C126.935 138.24 126.109 138.356 126.521 139.269C126.521 139.269 127.112 139.609 127.582 139.782C127.582 139.782 127.937 140.291 127.82 140.635C127.82 140.635 126.935 140.688 126.874 141.032C126.874 141.032 125.049 140.862 124.931 141.374C124.931 141.374 124.611 142.509 123.817 142.398C123.817 142.398 123.221 142.511 123.283 142.797H122.635C122.635 142.797 122.286 143.027 122.813 143.54C122.813 143.54 122.93 144.279 122.695 144.395C122.695 144.395 122.577 144.452 122.635 144.735C122.635 144.735 122.229 144.735 122.458 145.592C122.458 145.592 122.752 146.502 123.521 146.276C123.521 146.276 123.989 146.162 124.106 145.763C124.106 145.763 124.227 145.82 124.401 145.878C124.401 145.878 124.87 146.104 124.578 146.332C124.578 146.332 123.817 146.732 123.521 147.3L123.044 147.468C123.044 147.468 122.813 147.808 123.637 148.553C123.637 148.553 123.112 150.031 124.048 150.601C124.048 150.601 124.401 151.057 124.693 151.057C124.693 151.057 125.59 151.122 125.639 149.974C125.639 149.974 126.051 150.317 126.347 150.089C126.347 150.089 126.816 149.86 126.935 149.405C126.935 149.405 127.465 149.294 127.582 149.632C127.582 149.632 128.292 149.974 128.526 149.917L128.467 152.768C128.467 152.768 128.173 152.994 128.173 153.457C128.173 153.457 127.813 153.916 127.527 154.933C127.527 154.933 127.169 156.213 126.404 156.296C126.404 156.296 125.463 156.754 123.754 153.223C123.754 153.223 119.515 145.363 121.109 138.698C121.109 138.698 121.687 137.335 120.871 135.902C120.057 134.479 118.717 133.216 117.804 132.2L116.507 132.03" fill="#006086"/>
<path fill-rule="evenodd" clip-rule="evenodd" d="M113.28 161.127L113.649 161.181L113.675 161.051L114.043 160.95L114.016 160.769L113.649 160.747L113.599 160.95C113.599 160.95 113.28 161.025 113.28 161.127" fill="#006086"/>
<path fill-rule="evenodd" clip-rule="evenodd" d="M144.544 134.427C144.544 134.427 144.396 133.999 145.458 134.112L145.342 134.31L145.135 134.339L144.928 134.568L144.544 134.427" fill="#006086"/>
<path fill-rule="evenodd" clip-rule="evenodd" d="M139.245 136.971V137.16H139.557L139.636 137.008L139.245 136.971" fill="#006086"/>
<path fill-rule="evenodd" clip-rule="evenodd" d="M167.282 136.589C167.282 136.589 167.516 136.018 168.026 136.06C168.026 136.06 168.223 136.437 167.986 136.4C167.986 136.4 167.672 136.7 167.282 136.589" fill="#006086"/>
<path fill-rule="evenodd" clip-rule="evenodd" d="M117.764 129.115L117.88 129.76C117.88 129.76 116.427 130.487 116.232 131.545C116.232 131.545 116.034 131.28 115.879 131.355L115.917 131.05H116.191C116.191 131.05 115.915 129.989 116.311 129.76C116.311 129.76 116.855 129.384 117.249 129.421L117.486 129.153L117.764 129.115" fill="#006086"/>
<path fill-rule="evenodd" clip-rule="evenodd" d="M116.512 158.914C116.512 158.914 116.984 159.655 117.774 159.754C117.774 159.754 117.196 160.163 115.775 160.107L115.568 159.982C115.568 159.982 116.33 159.472 116.512 158.914Z" fill="#006086"/>
<path fill-rule="evenodd" clip-rule="evenodd" d="M96.9093 93.4795L19.1472 93.4643C19.6186 95.6606 20.119 97.8939 20.635 100.147L96.9093 100.166V93.4795Z" fill="#ED1B23"/>
<path fill-rule="evenodd" clip-rule="evenodd" d="M148.903 93.4795L226.704 93.4643C226.231 95.6639 225.731 97.8939 225.216 100.147L148.903 100.166V93.4795Z" fill="#ED1B23"/>
<path fill-rule="evenodd" clip-rule="evenodd" d="M96.9094 84.6762L17.3669 84.6644C17.7877 86.8572 18.2335 89.0855 18.7082 91.3457L96.9094 91.3625V84.6762Z" fill="#FFF200"/>
<path fill-rule="evenodd" clip-rule="evenodd" d="M148.903 84.6762L228.486 84.6644C228.067 86.8589 227.614 89.0855 227.143 91.3457L148.903 91.3625V84.6762" fill="#FFF200"/>
</svg>
